<svg version="1.1" xmlns="http://www.w3.org/2000/svg" xmlns:xlink="http://www.w3.org/1999/xlink" width="800" height="800"><defs/><g transform="scale(2,2)"><g id="background-aac7c0bf"><rect fill="white" stroke="none" x="0" y="0" width="400" height="400" class="dcg-svg-background"/></g><g id="graphpaper-aac7c0bf"><g id="axis-aac7c0bf"><g id="yaxis-aac7c0bf"><title>Y axis</title><g><path fill="none" stroke="rgb(0,0,0)" class="dcg-svg-axis-line" paint-order="fill stroke markers" d=" M 200 0 L 200 400" stroke-opacity="0.9" stroke-miterlimit="10" stroke-width="1.5" stroke-dasharray=""/></g></g><g id="xaxis-aac7c0bf"><title>X axis</title><g><path fill="none" stroke="rgb(0,0,0)" class="dcg-svg-axis-line" paint-order="fill stroke markers" d=" M 0 200 L 400 200" stroke-opacity="0.9" stroke-miterlimit="10" stroke-width="1.5" stroke-dasharray=""/></g></g><g><g><path fill="none" stroke="rgb(0,0,0)" class="dcg-svg-tickmark" paint-order="fill stroke markers" d="" stroke-opacity="0.9" stroke-miterlimit="2" stroke-width="1.5" stroke-dasharray=""/></g></g></g></g><g id="expressions-aac7c0bf"><g id="sketch-aac7c0bf"><title>Expression 6</title><path fill="#c74440" stroke="none" paint-order="stroke fill markers" d="" fill-opacity="0.4"/><g><path fill="none" stroke="#c74440" class="dcg-svg-curve" paint-order="fill stroke markers" d=" M 200 200 L 200 200 L 400 200" stroke-linecap="round" stroke-linejoin="round" stroke-miterlimit="10" stroke-width="2.5" stroke-dasharray=""/></g></g><g id="sketch-aac7c0bf"><title>Expression 8</title><path fill="#fa7e19" stroke="none" paint-order="stroke fill markers" d="" fill-opacity="0.4"/><g><path fill="none" stroke="#fa7e19" class="dcg-svg-curve" paint-order="fill stroke markers" d=" M 200 200 L 200 200 L 400 400.0000000000001" stroke-linecap="round" stroke-linejoin="round" stroke-miterlimit="10" stroke-width="2.5" stroke-dasharray=""/></g></g><g id="sketch-aac7c0bf"><title>Expression 10</title><g><path fill="none" stroke="#2d70b3" class="dcg-svg-curve" paint-order="fill stroke markers" d=" M 345.13422818791946 200 L 345.13422818791946 200 L 345.12779375223704 194.5262176708893 L 344.9148498865321 189.05292555413243 L 344.4954246924508 183.58791703667907 L 343.8698404736283 178.1389840690671 L 343.0387136666527 172.71390605586566 L 342.00295435238775 167.32043874931216 L 340.7637653477974 161.96630316199926 L 339.32264087901746 156.6591745144613 L 337.6813648370154 151.40667123348024 L 335.8420086177785 146.21634401688007 L 333.806928549567 141.09566498050415 L 331.57876291036075 136.05201690297292 L 328.7391043044436 130.27482935863992 L 325.6457201048067 124.62377092828049 L 322.3042141176463 119.1099877907339 L 318.72067992584635 113.74437708016028 L 314.9016898175178 108.5375653593767 L 310.85428276817595 103.4998875855413 L 306.5859514984561 98.6413666097992 L 302.10462863110143 93.97169325152974 L 297.4186719727405 89.50020698677807 L 292.53684894771516 85.23587728932225 L 287.4683202129065 81.18728566161516 L 282.2226224841435 77.36260839155696 L 276.80965060635776 73.76960006969696 L 271.2396389011654 70.41557790003861 L 265.52314182701457 67.30740683612856 L 259.67101398842374 64.45148557255428 L 253.6943895321585 61.853733420358765 L 247.60466096944086 59.519578093204046 L 241.4134574644632 57.45394442938729 L 235.13262263057246 55.66124407303076 L 228.77419187651307 54.14536613593896 L 222.35036934605353 52.909668859741316 L 215.87350449517723 51.956972296025356 L 209.35606835178956 51.289552020212454 L 202.8106295035766 50.909133892943316 L 196.24982986024912 50.816889880724744 L 189.68636023691164 51.013434945548454 L 183.13293580571545 51.49882501112947 L 176.60227146328032 52.272556011330806 L 170.10705716160447 53.333564024245874 L 163.65993325032366 54.680226493306236 L 157.2734658782331 56.310364534670384 L 150.96012250193624 58.22124632803818 L 144.73224754935472 60.40959158592517 L 138.60203828559736 62.87157709432799 L 132.5815209283689 65.60284331561851 L 126.6825270596801 68.59850204242858 L 120.91667038011796 71.85314508922465 L 115.29532385133558 75.36085400623882 L 109.82959727173493 79.11521079841053 L 104.530315329542 83.1093096300157 L 99.40799617660964 87.33576949371549 L 94.47283056533682 91.7867478208513 L 89.7346615900614 96.45395500794923 L 85.20296507316976 101.32866983257944 L 80.88683063497278 106.40175572994836 L 76.79494348512819 111.66367789988621 L 72.93556697204052 117.10452121223443 L 69.31652592525276 122.71400887703894 L 65.9451908243538 128.48152184441784 L 62.828462826368195 134.39611889750591 L 60.364506287676534 139.57432604138006 L 58.096082822501046 144.84509503067042 L 56.0266703279562 150.20104023173084 L 54.15946765047417 155.63464531042274 L 52.49738967329762 161.13827377858254 L 51.043062802685284 166.7041797251527 L 49.79882085977229 172.32451871690125 L 48.766701384457775 177.99135885338822 L 47.948442357111276 183.69669196060164 L 47.34547934330084 189.43244490746721 L 46.958943066148066 195.19049102924112 L 46.78965741031044 200.96266164162026 L 46.83813786098122 206.7407576292592 L 47.1045903806789 212.5165610922524 L 47.588910725977826 218.28184703403713 L 48.29068420570627 224.02839507409752 L 49.209185881509285 229.7480011687869 L 50.343381211043834 235.43248932355831 L 51.691927133442334 241.07372327988355 L 53.25317359604858 246.66361816015487 L 55.02516552079891 252.19415205390285 L 57.00564520799247 257.657377528731 L 59.19205517456649 263.0454330494462 L 61.58154142336909 268.3505542889844 L 64.17095713930331 273.56508531485713 L 67.44003159534711 279.5241615542047 L 70.97060089842938 285.3379398574166 L 74.75620579251368 290.99494286049026 L 78.78988315835142 296.483980409846 L 83.06417878722377 301.7941716867025 L 87.57116112634068 306.9149667631972 L 92.302435970613 311.83616754757577 L 97.24916207363393 316.5479480768904 L 102.40206764888754 321.04087411686226 L 107.7514677304258 325.3059220298476 L 113.28728236054064 329.3344968732117 L 118.99905557031144 333.1184496918605 L 124.87597511730966 336.6500939701882 L 130.9068929432255 339.9222212102849 L 137.08034631272898 342.92811560489804 L 143.3845795934993 345.6615677753567 L 149.80756663604723 348.1168875464348 L 156.33703371074245 350.2889157319713 L 162.96048295830218 352.17303490693934 L 169.66521630894565 353.7651791435958 L 176.43835982444006 355.0618426913241 L 183.26688841638028 356.0600875818028 L 190.13765089324355 356.75755014319594 L 196.0504475705627 357.11460894990887 L 201.97614798872524 357.24858258688306 L 207.90633313069407 357.15900573295517 L 213.83256724273022 356.84573087468226 L 219.74640983433284 356.3089289064825 L 225.6394276996194 355.5490892775605 L 231.50320694302792 354.5670196848553 L 237.32936499218883 353.3638453118948 L 243.1095625808172 351.9410076140887 L 248.83551568449715 350.3002626516409 L 254.4990073922755 348.44367897190745 L 261.0166180933753 346.0080587404699 L 267.4253735335793 343.2862123743869 L 273.7127011985667 340.28300528414223 L 279.8662460594044 337.0038552431638 L 285.87389484500756 333.4547226650408 L 291.7237998798781 329.64209981393253 L 297.40440244022784 325.5729989676082 L 302.90445558245983 321.25493955461576 L 308.2130463989372 316.69593428911145 L 312.6028660803102 312.60286608031026" stroke-linecap="round" stroke-linejoin="round" stroke-miterlimit="10" stroke-width="5" stroke-dasharray=""/></g></g><g id="sketch-aac7c0bf"><title>Expression 13</title><path fill="#2d70b3" stroke="none" paint-order="stroke fill markers" d="" fill-opacity="0.4"/><g><path fill="none" stroke="#2d70b3" class="dcg-svg-curve" paint-order="fill stroke markers" d=" M 312.6028660803102 312.60286608031026 L 312.6028660803102 312.60286608031026 L 305.78771327632614 327.2180084327842" stroke-linecap="round" stroke-linejoin="round" stroke-miterlimit="10" stroke-width="5" stroke-dasharray=""/></g></g><g id="sketch-aac7c0bf"><title>Expression 14</title><path fill="#2d70b3" stroke="none" paint-order="stroke fill markers" d="" fill-opacity="0.4"/><g><path fill="none" stroke="#2d70b3" class="dcg-svg-curve" paint-order="fill stroke markers" d=" M 312.6028660803102 312.60286608031026 L 312.6028660803102 312.60286608031026 L 297.9877237278363 319.4180188842943" stroke-linecap="round" stroke-linejoin="round" stroke-miterlimit="10" stroke-width="5" stroke-dasharray=""/></g></g></g><g id="labels-aac7c0bf"/><g id="labels-aac7c0bf"/></g></svg>