<svg version="1.1" xmlns="http://www.w3.org/2000/svg" xmlns:xlink="http://www.w3.org/1999/xlink" width="800" height="800"><defs/><g transform="scale(2,2)"><g id="background-4b9708d1"><rect fill="white" stroke="none" x="0" y="0" width="400" height="400" class="dcg-svg-background"/></g><g id="graphpaper-4b9708d1"><g id="axis-4b9708d1"><g id="yaxis-4b9708d1"><title>Y axis</title><g><path fill="none" stroke="rgb(0,0,0)" class="dcg-svg-axis-line" paint-order="fill stroke markers" d=" M 200 0 L 200 400" stroke-opacity="0.9" stroke-miterlimit="10" stroke-width="1.5" stroke-dasharray=""/></g></g><g id="xaxis-4b9708d1"><title>X axis</title><g><path fill="none" stroke="rgb(0,0,0)" class="dcg-svg-axis-line" paint-order="fill stroke markers" d=" M 0 200 L 400 200" stroke-opacity="0.9" stroke-miterlimit="10" stroke-width="1.5" stroke-dasharray=""/></g></g><g><g><path fill="none" stroke="rgb(0,0,0)" class="dcg-svg-tickmark" paint-order="fill stroke markers" d="" stroke-opacity="0.9" stroke-miterlimit="2" stroke-width="1.5" stroke-dasharray=""/></g></g></g></g><g id="expressions-4b9708d1"><g id="sketch-4b9708d1"><title>Expression 6</title><path fill="#c74440" stroke="none" paint-order="stroke fill markers" d="" fill-opacity="0.4"/><g><path fill="none" stroke="#c74440" class="dcg-svg-curve" paint-order="fill stroke markers" d=" M 200 200 L 200 200 L 400 200" stroke-linecap="round" stroke-linejoin="round" stroke-miterlimit="10" stroke-width="2.5" stroke-dasharray=""/></g></g><g id="sketch-4b9708d1"><title>Expression 8</title><path fill="#fa7e19" stroke="none" paint-order="stroke fill markers" d="" fill-opacity="0.4"/><g><path fill="none" stroke="#fa7e19" class="dcg-svg-curve" paint-order="fill stroke markers" d=" M -2.842170943040401e-14 399.99999999999994 L -2.842170943040401e-14 399.99999999999994 L 200 200" stroke-linecap="round" stroke-linejoin="round" stroke-miterlimit="10" stroke-width="2.5" stroke-dasharray=""/></g></g><g id="sketch-4b9708d1"><title>Expression 10</title><g><path fill="none" stroke="#2d70b3" class="dcg-svg-curve" paint-order="fill stroke markers" d=" M 345.13422818791946 200 L 345.13422818791946 200 L 345.12779375223704 194.5262176708893 L 344.9148498865321 189.05292555413243 L 344.4954246924508 183.58791703667907 L 343.8698404736283 178.1389840690671 L 343.0387136666527 172.71390605586566 L 342.00295435238775 167.32043874931216 L 340.7637653477974 161.96630316199926 L 339.32264087901746 156.6591745144613 L 337.6813648370154 151.40667123348024 L 335.8420086177785 146.21634401688007 L 333.806928549567 141.09566498050415 L 331.57876291036075 136.05201690297292 L 328.7391043044436 130.27482935863992 L 325.6457201048066 124.62377092828049 L 322.3042141176463 119.10998779073391 L 318.72067992584635 113.74437708016028 L 314.9016898175178 108.53756535937671 L 310.85428276817595 103.4998875855413 L 306.5859514984561 98.6413666097992 L 302.10462863110143 93.97169325152974 L 297.41867197274047 89.50020698677807 L 292.53684894771516 85.23587728932223 L 287.4683202129065 81.18728566161516 L 282.2226224841436 77.36260839155698 L 276.80965060635776 73.76960006969698 L 271.2396389011654 70.41557790003861 L 265.52314182701457 67.30740683612856 L 259.67101398842374 64.45148557255428 L 253.6943895321585 61.853733420358765 L 247.60466096944086 59.519578093204046 L 241.4134574644632 57.45394442938729 L 235.13262263057246 55.66124407303076 L 228.77419187651307 54.14536613593896 L 222.35036934605353 52.909668859741316 L 215.8735044951772 51.956972296025356 L 209.35606835178956 51.289552020212454 L 202.8106295035766 50.909133892943316 L 196.24982986024912 50.816889880724744 L 189.68636023691158 51.013434945548454 L 183.13293580571542 51.49882501112947 L 176.60227146328032 52.272556011330806 L 170.10705716160447 53.333564024245874 L 163.65993325032372 54.68022649330621 L 157.2734658782331 56.310364534670384 L 150.96012250193627 58.22124632803818 L 144.73224754935472 60.40959158592517 L 138.60203828559736 62.87157709432799 L 132.5815209283689 65.60284331561851 L 126.6825270596801 68.59850204242858 L 120.91667038011802 71.85314508922463 L 115.29532385133552 75.36085400623885 L 109.82959727173493 79.11521079841053 L 104.530315329542 83.1093096300157 L 99.40799617660964 87.33576949371549 L 94.47283056533682 91.7867478208513 L 89.7346615900614 96.45395500794923 L 85.20296507316976 101.32866983257944 L 80.88683063497278 106.40175572994836 L 76.79494348512827 111.66367789988612 L 72.93556697204048 117.1045212122345 L 69.31652592525276 122.71400887703894 L 65.94519082435377 128.4815218444179 L 62.828462826368195 134.39611889750591 L 60.364506287676534 139.57432604138006 L 58.096082822501046 144.84509503067042 L 56.026670327956225 150.2010402317308 L 54.15946765047414 155.63464531042288 L 52.49738967329762 161.13827377858254 L 51.043062802685284 166.7041797251527 L 49.79882085977229 172.32451871690125 L 48.766701384457775 177.99135885338822 L 47.948442357111276 183.69669196060158 L 47.34547934330084 189.43244490746721 L 46.958943066148066 195.19049102924112 L 46.78965741031044 200.96266164162017 L 46.83813786098122 206.7407576292593 L 47.1045903806789 212.5165610922524 L 47.588910725977826 218.28184703403713 L 48.29068420570627 224.02839507409752 L 49.209185881509285 229.7480011687869 L 50.343381211043834 235.43248932355826 L 51.691927133442334 241.07372327988355 L 53.25317359604858 246.66361816015475 L 55.025165520798936 252.19415205390294 L 57.005645207992444 257.65737752873093 L 59.19205517456649 263.0454330494462 L 61.58154142336909 268.3505542889844 L 64.17095713930331 273.56508531485713 L 67.44003159534711 279.5241615542047 L 70.97060089842938 285.3379398574166 L 74.75620579251368 290.99494286049026 L 78.78988315835142 296.483980409846 L 83.06417878722377 301.7941716867025 L 87.57116112634068 306.9149667631972 L 90.24783939007733 309.7521606099226" stroke-linecap="round" stroke-linejoin="round" stroke-miterlimit="10" stroke-width="5" stroke-dasharray=""/></g></g><g id="sketch-4b9708d1"><title>Expression 13</title><path fill="#2d70b3" stroke="none" paint-order="stroke fill markers" d="" fill-opacity="0.4"/><g><path fill="none" stroke="#2d70b3" class="dcg-svg-curve" paint-order="fill stroke markers" d=" M 90.24783939007733 309.7521606099226 L 90.24783939007733 309.7521606099226 L 75.63269703760339 302.9370078059386" stroke-linecap="round" stroke-linejoin="round" stroke-miterlimit="10" stroke-width="5" stroke-dasharray=""/></g></g><g id="sketch-4b9708d1"><title>Expression 14</title><path fill="#2d70b3" stroke="none" paint-order="stroke fill markers" d="" fill-opacity="0.4"/><g><path fill="none" stroke="#2d70b3" class="dcg-svg-curve" paint-order="fill stroke markers" d=" M 90.24783939007733 309.7521606099226 L 90.24783939007733 309.7521606099226 L 83.43268658609327 295.1370182574487" stroke-linecap="round" stroke-linejoin="round" stroke-miterlimit="10" stroke-width="5" stroke-dasharray=""/></g></g></g><g id="labels-4b9708d1"/><g id="labels-4b9708d1"/></g></svg>