<svg version="1.1" xmlns="http://www.w3.org/2000/svg" xmlns:xlink="http://www.w3.org/1999/xlink" width="800" height="800"><defs/><g transform="scale(2,2)"><g id="background-3825e98a"><rect fill="white" stroke="none" x="0" y="0" width="400" height="400" class="dcg-svg-background"/></g><g id="graphpaper-3825e98a"><g id="axis-3825e98a"><g id="yaxis-3825e98a"><title>Y axis</title><g><path fill="none" stroke="rgb(0,0,0)" class="dcg-svg-axis-line" paint-order="fill stroke markers" d=" M 200 0 L 200 400" stroke-opacity="0.9" stroke-miterlimit="10" stroke-width="1.5" stroke-dasharray=""/></g></g><g id="xaxis-3825e98a"><title>X axis</title><g><path fill="none" stroke="rgb(0,0,0)" class="dcg-svg-axis-line" paint-order="fill stroke markers" d=" M 0 200 L 400 200" stroke-opacity="0.9" stroke-miterlimit="10" stroke-width="1.5" stroke-dasharray=""/></g></g><g><g><path fill="none" stroke="rgb(0,0,0)" class="dcg-svg-tickmark" paint-order="fill stroke markers" d="" stroke-opacity="0.9" stroke-miterlimit="2" stroke-width="1.5" stroke-dasharray=""/></g></g></g></g><g id="expressions-3825e98a"><g id="sketch-3825e98a"><title>Expression 6</title><path fill="#c74440" stroke="none" paint-order="stroke fill markers" d="" fill-opacity="0.4"/><g><path fill="none" stroke="#c74440" class="dcg-svg-curve" paint-order="fill stroke markers" d=" M 200 200 L 200 200 L 400 200" stroke-linecap="round" stroke-linejoin="round" stroke-miterlimit="10" stroke-width="2.5" stroke-dasharray=""/></g></g><g id="sketch-3825e98a"><title>Expression 8</title><path fill="#fa7e19" stroke="none" paint-order="stroke fill markers" d="" fill-opacity="0.4"/><g><path fill="none" stroke="#fa7e19" class="dcg-svg-curve" paint-order="fill stroke markers" d=" M -2.842170943040401e-14 -2.2737367544323206e-13 L -2.842170943040401e-14 -2.2737367544323206e-13 L 200 200" stroke-linecap="round" stroke-linejoin="round" stroke-miterlimit="10" stroke-width="2.5" stroke-dasharray=""/></g></g><g id="sketch-3825e98a"><title>Expression 10</title><g><path fill="none" stroke="#2d70b3" class="dcg-svg-curve" paint-order="fill stroke markers" d=" M 78.84501750852702 78.8450175085269 L 78.84501750852702 78.8450175085269 L 73.72155446458127 84.36190925339531 L 68.84872575939991 90.09487350352086 L 64.23561674224283 96.03254843945388 L 59.89079874703023 102.16319147040288 L 55.82231319154053 108.47470244436462 L 52.56067555230592 114.0191085664538 L 49.511969323497254 119.67925530658755 L 46.680281925084216 125.44697541612204 L 44.06938789230185 131.31395808785425 L 41.68274386544394 137.27176092851633 L 39.523484037266485 143.31182210482825 L 37.59441606395583 149.4254726456512 L 35.898017444961454 155.60394888255126 L 34.43643237630695 161.83840501094016 L 33.21146908132687 168.1199257537746 L 32.22459762208274 174.43953910969768 L 31.584906074282316 179.72847858574934 L 31.111820115624113 185.03237618371278 L 30.8056480790907 190.34598752954977 L 30.666533336102873 195.66406364180503 L 30.694454311344344 200.98135611672052 L 30.889224660449116 206.29262230786986 L 31.25049361022164 211.5926304952075 L 31.7777464609008 216.87616503843307 L 32.47030524981716 222.13803150958933 L 33.51838497115958 228.4163948759382 L 34.80152764747274 234.64724594217677 L 36.317642499072974 240.82179247703527 L 38.064310209348776 246.93133228155037 L 40.03878673815555 252.9672654530403 L 42.23800759254382 258.92110648965723 L 44.658592548220724 264.78449621846767 L 47.29685081452317 270.54921353031386 L 50.148786635041944 276.2071869049631 L 53.21010531543894 281.7505057104044 L 56.476219669396215 287.17143126047716 L 60.53900898912127 293.3310831580551 L 64.86568843894364 299.302203089112 L 69.447543221984 305.0735065767338 L 74.27537694653837 310.634110573012 L 79.33953005842449 315.97355396916765 L 84.62989914484642 321.0818172617708 L 90.13595707124385 325.94934133811313 L 95.84677391103031 330.5670453455466 L 100.89616704198245 334.3197191380875 L 106.08035726314945 337.87742703673393 L 111.39182786784724 341.23534342278276 L 116.82289004428846 344.3889320637701 L 122.36569400155129 347.3339522257874 L 128.0122403116003 350.06646435859784 L 133.7543914509695 352.5828353459534 L 139.5838835254661 354.8797433141492 L 145.49233816100093 356.95418199248127 L 151.47127454344096 358.8034646199219 L 157.51212159018576 360.4252273929817 L 163.60623023599837 361.8174324503789 L 169.74488581548616 362.97837039081 L 175.91932052450227 363.9066623207769 L 182.12072594265075 364.6012614301019 L 188.34026559901088 365.06145409343617 L 194.56908756315622 365.2868604967436 L 200.79833704352475 365.27743478841853 L 207.01916897521556 365.0334647553751 L 213.22276057931106 364.55557102511796 L 219.40032387589557 363.8447057954813 L 225.54311813302274 362.9021510943911 L 231.64246223399573 361.7295165726725 L 237.68974694546486 360.32873683358423 L 243.67644706899858 358.70206830342016 L 249.59413345898722 356.8520856481613 L 255.434484889931 354.7816777418061 L 261.18929975640765 352.4940431926376 L 266.85050758927224 349.9926854343049 L 272.41018037191674 347.2814073892125 L 277.86054364073 344.36430571230756 L 283.19398735421424 341.2457646239428 L 288.4030765155664 337.9304493410719 L 293.4805615339026 334.42329911658885 L 299.22856145479255 330.09612555260946 L 304.77699338139803 325.5236510211665 L 310.1154109284272 320.7150489904594 L 315.2337881092718 315.67993679590336 L 320.1225381502585 310.42835642760787 L 324.7725314291127 304.970754522465 L 329.17511250410985 299.3179616006668 L 333.32211620218675 293.4811705878947 L 337.2058827361592 287.47191466573906 L 340.8192718231081 281.30204449415874 L 343.6962406777011 275.8949470046234 L 346.36585831032545 270.3865725640966 L 348.8245807521074 264.78486282444476 L 351.06916784009695 259.0978825914242 L 353.0966874619088 253.33380821607565 L 354.9045193572882 247.50091584125798 L 356.4903584717181 241.6075695202095 L 357.8522178578226 235.6622092241975 L 358.9884311209787 229.6733387564434 L 359.8976544061927 223.6495135896364 L 360.5788679239611 217.59932864442158 L 361.0313770134903 211.53140602632723 L 361.2548127423116 205.45438273862226 L 361.24913204198833 199.37689838861903 L 361.0146173802749 193.307582904914 L 360.55187597074234 187.2550442830345 L 359.8618385215472 181.22785637688568 L 358.9457575256712 175.2345467533194 L 357.8052050956106 169.28358462702676 L 356.44207034613885 163.38336889282166 L 354.858556329404 157.54221627223345 L 353.05717652725673 151.7683495911283 L 351.0407509063267 146.069886204888 L 348.81240154198423 140.45482658743663 L 346.3755478179253 134.93104310015124 L 343.7339012087201 129.50626895642435 L 340.8914596532463 124.18808739734459 L 337.3272184335334 118.12815664301216 L 333.502771877075 112.2348977462977 L 329.4258771545138 106.51946371683825 L 325.1047685832563 100.9926480472011 L 320.54814102776425 95.66486434027365 L 315.76513243184235 90.5461267004953 L 310.7653055179669 85.64603092583413 L 305.55862869025856 80.97373653580142 L 300.1554561791954 76.53794966913166 L 294.56650746757924 72.34690688302217 L 288.8028460386048 68.40835988403603 L 282.87585748813683 64.72956121892497 L 276.797227044472 61.31725095172641 L 270.57891653995284 58.17764435154771 L 264.23314087979776 55.31642061345073 L 257.77234405442283 52.738712632822484 L 251.2091747423471 50.44909785154408 L 244.55646155150828 48.45159019217155 L 237.82718794743772 46.7496330942073 L 232.00824020496364 45.52823586759084 L 226.1509959496999 44.527559622467464 L 220.26381902403108 43.748754897568375 L 214.35510555821818 43.19265561273488 L 208.43327199634632 42.85977827059176 L 202.50674310799172 42.75032161062026 L 195.59775891980263 42.90482480878603 L 188.70718911445348 43.36251932906265 L 181.8483227938677 44.12208581578011 L 175.03436871440908 45.18162314844773 L 168.2784298497969 46.53865295229289 L 161.59347819511217 48.19012521963367 L 154.99232986035113 50.13242502961421 L 148.48762050133635 52.361380351724534 L 142.0917811350909 54.87227091644348 L 135.8170143859556 57.65983813430344 L 129.6752712078358 60.718296042668044 L 123.67822812697617 64.04134325755336 L 117.8372650485887 67.6221759059074 L 112.16344366950285 71.45350151190084 L 106.66748653777924 75.52755380896541 L 101.35975679890687 79.83610844757062 L 96.25023866682568 84.3704995670292 L 91.34851865654879 89.12163719799986 L 86.6637676136391 94.08002546078762 L 82.20472357419081 99.23578152305676 L 77.97967548731889 104.57865527914453 L 73.99644783043264 110.0980497118284 L 70.26238614580436 115.78304189612489 L 66.78434352511215 121.62240460351941 L 63.56866806676368 127.6046284639177 L 61.02563229114128 132.83704029063432 L 58.68301358608221 138.15821823034958 L 56.54388754884809 143.5604951563236 L 54.61103681307179 149.03609830919282 L 52.886947459059996 154.57716047831178 L 51.37380585036814 160.1757313034948 L 50.07349590061963 165.82378868092658 L 48.98759677392445 171.51325025687368 L 48.11738102162792 177.23598499274027 L 47.463813157499914 182.98382478491015 L 47.027548672843096 188.74857612278038 L 46.80893349237505 194.5220317683383 L 46.808003871106905 200.29598244064294 L 47.0244867318153 206.0622284885675 L 47.45780044207609 211.81259153521117 L 48.10705602920453 217.53892607744183 L 48.97105883082463 223.2331310241173 L 50.0483105781737 228.88716115664377 L 51.33701190863343 234.49303849565288 L 52.83506530337621 240.04286355774713 L 54.54007844540922 245.52882648642066 L 56.44936799271275 250.94321804148206 L 58.55996376057834 256.2784404315085 L 60.86861330668299 261.5270179741185 L 63.371786911864945 266.6816075691035 L 66.53292629446366 272.5669076306698 L 69.94715535221533 278.3033163154151 L 73.60750048357322 283.8799688052718 L 77.50652253031505 289.2863252990776 L 81.63633185957566 294.51219092293366 L 85.98860429562889 299.5477349434258 L 90.55459786930642 304.3835092475183 L 95.32517035140405 309.0104660544076 L 100.29079753496053 313.41997482616677 L 105.4415922298862 317.6038383456053 L 110.76732393210223 321.5543079314382 L 116.2574391280887 325.264097762565 L 121.90108219457733 328.72639828503713 L 127.68711685201922 331.9348886770996 L 133.60414812945754 334.88374834956295 L 139.64054479749484 337.56766746065773 L 145.7844622252125 339.9818564264707 L 152.02386561613406 342.1220544100313 L 158.3465535776643 343.98453677412544 L 164.74018197784932 345.5661214849422 L 171.1922880428227 346.8641744557117 L 177.69031464789663 347.8766138215638 L 184.2216347549616 348.6019131389206 L 190.77357594863372 349.0391035048317 L 197.33344502347973 349.18777459375895 L 203.88855257461123 349.04807461142207 L 210.42623754401248 348.62070916741357 L 216.9338916751191 347.90693907038644 L 223.39898382841056 346.9085770516994 L 229.80908411112932 345.62798342547217 L 236.15188777465636 344.06806069505603 L 242.41523883360588 342.2322471179466 L 248.58715336129887 340.12450924317227 L 254.65584241697974 337.7493334371581 L 260.6097345609124 335.11171641600407 L 266.4374979143657 332.2171548040137 L 272.12806172243495 329.07163374016943 L 277.6706373786838 325.68161455605923 L 283.0547388716846 322.0540215505297 L 288.270202614726 318.19622788804725 L 293.30720662120234 314.1160406494124 L 298.1562889895313 309.8216850650675 L 302.8083656628313 305.3217879627811 L 307.2547474300576 300.6253604629631 L 311.48715613680713 295.7417799562771 L 315.4977400755904 290.6807713995514 L 319.27908852699966 285.45238796725863 L 322.8242454248931 280.06699109702913 L 326.1267221204557 274.5352299687732 L 329.18050922177804 268.86802045803404 L 331.98008748742626 263.076523605141 L 334.52043775434015 257.17212364261866 L 336.48812379932394 252.0301244403209 L 338.25949644605186 246.8210852352931 L 339.8322998031293 241.55249216314982 L 341.20456312632564 236.2319060920303 L 342.3746032444509 230.86695177343566 L 343.3410265728965 225.46530691646353 L 344.1027307125174 220.03469120109372 L 344.6589056321231 214.58285524624333 L 345.0090344334413 209.11756954836088 L 345.152893698016 203.6466134063396 L 345.13422818791946 200" stroke-linecap="round" stroke-linejoin="round" stroke-miterlimit="10" stroke-width="5" stroke-dasharray=""/></g></g><g id="sketch-3825e98a"><title>Expression 13</title><path fill="#2d70b3" stroke="none" paint-order="stroke fill markers" d="" fill-opacity="0.4"/><g><path fill="none" stroke="#2d70b3" class="dcg-svg-curve" paint-order="fill stroke markers" d=" M 78.84501750852702 78.8450175085269 L 78.84501750852702 78.8450175085269 L 72.02986470454299 93.46015986100083" stroke-linecap="round" stroke-linejoin="round" stroke-miterlimit="10" stroke-width="5" stroke-dasharray=""/></g></g><g id="sketch-3825e98a"><title>Expression 14</title><path fill="#2d70b3" stroke="none" paint-order="stroke fill markers" d="" fill-opacity="0.4"/><g><path fill="none" stroke="#2d70b3" class="dcg-svg-curve" paint-order="fill stroke markers" d=" M 78.84501750852702 78.8450175085269 L 78.84501750852702 78.8450175085269 L 64.22987515605308 85.66017031251096" stroke-linecap="round" stroke-linejoin="round" stroke-miterlimit="10" stroke-width="5" stroke-dasharray=""/></g></g></g><g id="labels-3825e98a"/><g id="labels-3825e98a"/></g></svg>