<svg version="1.1" xmlns="http://www.w3.org/2000/svg" xmlns:xlink="http://www.w3.org/1999/xlink" width="800" height="800"><defs/><g transform="scale(2,2)"><g id="background-d6ba28be"><rect fill="white" stroke="none" x="0" y="0" width="400" height="400" class="dcg-svg-background"/></g><g id="graphpaper-d6ba28be"><g id="axis-d6ba28be"><g id="yaxis-d6ba28be"><title>Y axis</title><g><path fill="none" stroke="rgb(0,0,0)" class="dcg-svg-axis-line" paint-order="fill stroke markers" d=" M 200 0 L 200 400" stroke-opacity="0.9" stroke-miterlimit="10" stroke-width="1.5" stroke-dasharray=""/></g></g><g id="xaxis-d6ba28be"><title>X axis</title><g><path fill="none" stroke="rgb(0,0,0)" class="dcg-svg-axis-line" paint-order="fill stroke markers" d=" M 0 200 L 400 200" stroke-opacity="0.9" stroke-miterlimit="10" stroke-width="1.5" stroke-dasharray=""/></g></g><g><g><path fill="none" stroke="rgb(0,0,0)" class="dcg-svg-tickmark" paint-order="fill stroke markers" d="" stroke-opacity="0.9" stroke-miterlimit="2" stroke-width="1.5" stroke-dasharray=""/></g></g></g></g><g id="expressions-d6ba28be"><g id="sketch-d6ba28be"><title>Expression 6</title><path fill="#c74440" stroke="none" paint-order="stroke fill markers" d="" fill-opacity="0.4"/><g><path fill="none" stroke="#c74440" class="dcg-svg-curve" paint-order="fill stroke markers" d=" M 200 200 L 200 200 L 400 200" stroke-linecap="round" stroke-linejoin="round" stroke-miterlimit="10" stroke-width="2.5" stroke-dasharray=""/></g></g><g id="sketch-d6ba28be"><title>Expression 8</title><path fill="#fa7e19" stroke="none" paint-order="stroke fill markers" d="" fill-opacity="0.4"/><g><path fill="none" stroke="#fa7e19" class="dcg-svg-curve" paint-order="fill stroke markers" d=" M -2.842170943040401e-14 -5.684341886080802e-14 L -2.842170943040401e-14 -5.684341886080802e-14 L 200 200" stroke-linecap="round" stroke-linejoin="round" stroke-miterlimit="10" stroke-width="2.5" stroke-dasharray=""/></g></g><g id="sketch-d6ba28be"><title>Expression 10</title><g><path fill="none" stroke="#2d70b3" class="dcg-svg-curve" paint-order="fill stroke markers" d=" M 345.13422818791946 200 L 345.13422818791946 200 L 345.12779375223704 194.5262176708893 L 344.9148498865321 189.05292555413243 L 344.4954246924508 183.58791703667907 L 343.8698404736283 178.1389840690671 L 343.0387136666527 172.71390605586566 L 342.00295435238775 167.32043874931213 L 340.7637653477974 161.96630316199926 L 339.32264087901746 156.6591745144613 L 337.6813648370154 151.40667123348024 L 335.8420086177785 146.21634401688007 L 333.806928549567 141.09566498050415 L 331.57876291036075 136.05201690297292 L 328.7391043044436 130.27482935863992 L 325.6457201048066 124.62377092828049 L 322.3042141176463 119.10998779073391 L 318.72067992584635 113.74437708016028 L 314.9016898175178 108.53756535937671 L 310.85428276817595 103.4998875855413 L 306.5859514984561 98.6413666097992 L 302.10462863110143 93.97169325152974 L 297.41867197274047 89.50020698677807 L 292.53684894771516 85.23587728932225 L 287.4683202129065 81.18728566161516 L 282.2226224841436 77.36260839155698 L 276.80965060635776 73.76960006969696 L 271.2396389011654 70.41557790003861 L 265.52314182701457 67.30740683612856 L 259.67101398842374 64.45148557255428 L 253.6943895321585 61.853733420358765 L 247.60466096944086 59.519578093204046 L 241.4134574644632 57.45394442938729 L 235.13262263057246 55.66124407303076 L 228.77419187651313 54.14536613593896 L 222.35036934605353 52.909668859741316 L 215.87350449517723 51.956972296025356 L 209.35606835178956 51.289552020212454 L 202.81062950357665 50.909133892943316 L 196.24982986024912 50.816889880724744 L 189.68636023691164 51.013434945548454 L 183.13293580571542 51.49882501112947 L 176.60227146328032 52.272556011330806 L 170.10705716160447 53.333564024245874 L 163.65993325032366 54.680226493306236 L 157.2734658782331 56.310364534670384 L 150.96012250193624 58.22124632803818 L 144.73224754935472 60.40959158592517 L 138.60203828559736 62.87157709432799 L 132.5815209283689 65.60284331561851 L 126.6825270596801 68.59850204242858 L 120.91667038011802 71.85314508922463 L 115.29532385133558 75.36085400623882 L 109.82959727173493 79.11521079841053 L 104.530315329542 83.1093096300157 L 99.40799617660964 87.33576949371549 L 94.47283056533682 91.7867478208513 L 93.09854486046498 93.09854486046497" stroke-linecap="round" stroke-linejoin="round" stroke-miterlimit="10" stroke-width="5" stroke-dasharray=""/></g></g><g id="sketch-d6ba28be"><title>Expression 13</title><path fill="#2d70b3" stroke="none" paint-order="stroke fill markers" d="" fill-opacity="0.4"/><g><path fill="none" stroke="#2d70b3" class="dcg-svg-curve" paint-order="fill stroke markers" d=" M 93.09854486046498 93.09854486046497 L 93.09854486046498 93.09854486046497 L 99.91369766444905 78.48340250799103" stroke-linecap="round" stroke-linejoin="round" stroke-miterlimit="10" stroke-width="5" stroke-dasharray=""/></g></g><g id="sketch-d6ba28be"><title>Expression 14</title><path fill="#2d70b3" stroke="none" paint-order="stroke fill markers" d="" fill-opacity="0.4"/><g><path fill="none" stroke="#2d70b3" class="dcg-svg-curve" paint-order="fill stroke markers" d=" M 93.09854486046498 93.09854486046497 L 93.09854486046498 93.09854486046497 L 107.71368721293892 86.2833920564809" stroke-linecap="round" stroke-linejoin="round" stroke-miterlimit="10" stroke-width="5" stroke-dasharray=""/></g></g></g><g id="labels-d6ba28be"/><g id="labels-d6ba28be"/></g></svg>