<svg version="1.1" xmlns="http://www.w3.org/2000/svg" xmlns:xlink="http://www.w3.org/1999/xlink" width="800" height="800"><defs/><g transform="scale(2,2)"><g id="background-8fe5a10e"><rect fill="white" stroke="none" x="0" y="0" width="400" height="400" class="dcg-svg-background"/></g><g id="graphpaper-8fe5a10e"><g id="axis-8fe5a10e"><g id="yaxis-8fe5a10e"><title>Y axis</title><g><path fill="none" stroke="rgb(0,0,0)" class="dcg-svg-axis-line" paint-order="fill stroke markers" d=" M 200 0 L 200 400" stroke-opacity="0.9" stroke-miterlimit="10" stroke-width="1.5" stroke-dasharray=""/></g></g><g id="xaxis-8fe5a10e"><title>X axis</title><g><path fill="none" stroke="rgb(0,0,0)" class="dcg-svg-axis-line" paint-order="fill stroke markers" d=" M 0 200 L 400 200" stroke-opacity="0.9" stroke-miterlimit="10" stroke-width="1.5" stroke-dasharray=""/></g></g><g><g><path fill="none" stroke="rgb(0,0,0)" class="dcg-svg-tickmark" paint-order="fill stroke markers" d="" stroke-opacity="0.9" stroke-miterlimit="2" stroke-width="1.5" stroke-dasharray=""/></g></g></g></g><g id="expressions-8fe5a10e"><g id="sketch-8fe5a10e"><title>Expression 6</title><path fill="#c74440" stroke="none" paint-order="stroke fill markers" d="" fill-opacity="0.4"/><g><path fill="none" stroke="#c74440" class="dcg-svg-curve" paint-order="fill stroke markers" d=" M 200 200 L 200 200 L 400 200" stroke-linecap="round" stroke-linejoin="round" stroke-miterlimit="10" stroke-width="2.5" stroke-dasharray=""/></g></g><g id="sketch-8fe5a10e"><title>Expression 8</title><path fill="#fa7e19" stroke="none" paint-order="stroke fill markers" d="" fill-opacity="0.4"/><g><path fill="none" stroke="#fa7e19" class="dcg-svg-curve" paint-order="fill stroke markers" d=" M 200 200 L 200 200 L 400 -8.526512829121202e-14" stroke-linecap="round" stroke-linejoin="round" stroke-miterlimit="10" stroke-width="2.5" stroke-dasharray=""/></g></g><g id="sketch-8fe5a10e"><title>Expression 10</title><g><path fill="none" stroke="#2d70b3" class="dcg-svg-curve" paint-order="fill stroke markers" d=" M 312.6028660803102 87.39713391968974 L 312.6028660803102 87.39713391968974 L 307.46680257672637 82.63834419447707 L 302.13020511228115 78.1132508906197 L 296.6036830306205 73.83027776177217 L 290.89819829849733 69.79736793891712 L 285.0250437759736 66.02196922626854 L 278.9958208761145 62.51102037777551 L 272.82241665834687 59.27093837945122 L 266.51698040069584 56.30760676076838 L 260.0918996970511 53.62636495632651 L 253.5597761264801 51.231998736937015 L 246.93340054236393 49.12873172716479 L 240.2257280298021 47.32021802423691 L 234.42151097616284 46.00701209976498 L 228.5754969345816 44.91422966822017 L 222.6960483197043 44.043154229218715 L 216.7915648656336 43.39475234650487 L 210.87047162590497 42.96967265991776 L 204.9412069520541 42.76824535126639 L 199.0122104679342 42.79048206432128 L 193.09191105691872 43.03607627848322 L 186.20710009471287 43.60405204876011 L 179.35885445727752 44.47364596543488 L 172.56037164160415 45.64274220444835 L 165.82473386475002 47.10864819102878 L 159.16488289058702 48.86810064184732 L 152.59359516476474 50.917272704499624 L 146.12345730565798 53.25178217890365 L 139.7668419983158 55.866700803125326 L 133.53588433757142 58.75656458410751 L 127.44245866554031 61.91538515177487 L 121.49815594771168 65.33666211303427 L 115.7142617307256 69.01339638028378 L 110.10173472374265 72.9381044471895 L 104.67118604403879 77.10283358269095 L 99.4328591661175 81.4991779124533 L 94.39661061220328 86.11829535531147 L 89.57189142049269 90.95092538063632 L 84.96772942597651 95.98740755100879 L 80.59271238702145 101.21770081311635 L 76.45497198920778 106.63140349839026 L 72.56216875617693 112.2177739935756 L 68.92147789543844 117.96575204018569 L 65.53957610522863 123.86398062063556 L 62.422629366617514 129.90082838776425 L 59.966135970444356 135.176597876132 L 57.71170225872686 140.53786621553573 L 55.662280266230596 145.97690397411068 L 53.82052669847138 151.48588076841804 L 52.18879951966338 157.05687653467675 L 50.76915497035719 162.68189291364396 L 49.56334501848363 168.35286473277705 L 48.57281524689418 174.06167156919918 L 47.79870317986487 179.8001493768877 L 47.241837050400136 185.56010216144307 L 46.90273500954322 191.33331368573866 L 46.781604778267564 197.1115591897386 L 46.87834374189282 202.88661710776108 L 47.192539486336585 208.65028076650066 L 47.72347077488655 214.39437004715853 L 48.47010896354789 220.1107429951142 L 49.43111985240142 225.79130736065673 L 50.60486596978754 231.4280320544214 L 51.989409285517326 237.01295850131203 L 53.582514348707974 242.5382118768604 L 55.381651845236775 247.996012210158 L 57.3840025692179 253.3786853377077 L 59.58646180232205 258.67867369277315 L 61.98564409418546 263.88854691505895 L 64.57788843659222 269.00101226583 L 67.84092337289113 274.8329190685508 L 71.35468020377215 280.51145140784365 L 75.11198780565738 286.02584966281944 L 79.1052141812543 291.3656879439369 L 83.32628192654863 296.5208937944682 L 87.76668453820722 301.48176717779825 L 92.41750352852658 306.23899871479153 L 97.26942631354308 310.78368713696267 L 102.312764838472 315.10735592276546 L 107.53747490326421 319.20196908594363 L 112.93317614976654 323.0599460865803 L 118.48917267074324 326.67417583722647 L 124.19447419986982 330.0380297782888 L 130.0378178407418 333.145373998697 L 136.0076902919593 335.9905803797643 L 142.09235052444674 338.5685367420764 L 148.2798528663557 340.874655977215 L 154.55807045017488 342.9048841481144 L 160.91471897603373 344.6557075438767 L 167.33738074464267 346.12415867692204 L 173.8135289128578 347.30782121241805 L 180.33055192449592 348.2048338220221 L 186.8757780687572 348.81389295606886 L 193.4365001184334 349.1342545304404 L 200 349.16573452647276 L 206.55357344769584 348.90870850436 L 213.0845545937995 348.3641100326265 L 219.58034044750593 347.53342803833914 L 226.02841521509225 346.41870308481555 L 232.4163744144446 345.02252258565824 L 238.73194873748182 343.348014965994 L 244.96302761457582 341.39884278382624 L 251.09768243571085 339.17919482640394 L 257.1241893838621 336.69377719848126 L 263.03105183688984 333.94780342127 L 268.8070222951513 330.9469835627798 L 274.4411237930141 327.69751242209065 L 279.92267075352345 324.20605679190203 L 285.24128924661284 320.4797418254581 L 290.3869366124692 316.52613653564447 L 295.3499204129506 312.35323845569644 L 300.12091667531627 307.96945749253985 L 304.6909873939552 303.3835990053069 L 309.0515972572914 298.6048461430232 L 313.19462956859877 293.6427414768482 L 317.1124013310676 288.507167963569 L 320.79767746913444 283.2083292782865 L 324.24368415980393 277.75672955540233 L 327.4441212494587 272.1631525781035 L 330.3931737334669 266.4386404575499 L 333.0855222777476 260.594471843899 L 335.1852711746605 255.49865420451258 L 337.09014447986885 250.33071700432862 L 338.7976915303418 245.09810376986732 L 340.30574564649976 239.80834020634165 L 341.6124268419396 234.4690233755009 L 342.71614412120357 229.0878107860794 L 343.61559736285403 223.6724094125168 L 344.30977878571866 218.23056465769525 L 344.79797399676215 212.770049275499 L 345.0797626196413 207.29865226904008 L 345.15501850360147 201.82416778040457 L 345.13422818791946 200" stroke-linecap="round" stroke-linejoin="round" stroke-miterlimit="10" stroke-width="5" stroke-dasharray=""/></g></g><g id="sketch-8fe5a10e"><title>Expression 13</title><path fill="#2d70b3" stroke="none" paint-order="stroke fill markers" d="" fill-opacity="0.4"/><g><path fill="none" stroke="#2d70b3" class="dcg-svg-curve" paint-order="fill stroke markers" d=" M 312.6028660803102 87.39713391968974 L 312.6028660803102 87.39713391968974 L 297.9877237278363 80.58198111570567" stroke-linecap="round" stroke-linejoin="round" stroke-miterlimit="10" stroke-width="5" stroke-dasharray=""/></g></g><g id="sketch-8fe5a10e"><title>Expression 14</title><path fill="#2d70b3" stroke="none" paint-order="stroke fill markers" d="" fill-opacity="0.4"/><g><path fill="none" stroke="#2d70b3" class="dcg-svg-curve" paint-order="fill stroke markers" d=" M 312.6028660803102 87.39713391968974 L 312.6028660803102 87.39713391968974 L 305.78771327632614 72.7819915672158" stroke-linecap="round" stroke-linejoin="round" stroke-miterlimit="10" stroke-width="5" stroke-dasharray=""/></g></g></g><g id="labels-8fe5a10e"/><g id="labels-8fe5a10e"/></g></svg>