<svg version="1.1" xmlns="http://www.w3.org/2000/svg" xmlns:xlink="http://www.w3.org/1999/xlink" width="800" height="800"><defs/><g transform="scale(2,2)"><g id="background-65e79906"><rect fill="white" stroke="none" x="0" y="0" width="400" height="400" class="dcg-svg-background"/></g><g id="graphpaper-65e79906"><g id="axis-65e79906"><g id="yaxis-65e79906"><title>Y axis</title><g><path fill="none" stroke="rgb(0,0,0)" class="dcg-svg-axis-line" paint-order="fill stroke markers" d=" M 200 0 L 200 400" stroke-opacity="0.9" stroke-miterlimit="10" stroke-width="1.5" stroke-dasharray=""/></g></g><g id="xaxis-65e79906"><title>X axis</title><g><path fill="none" stroke="rgb(0,0,0)" class="dcg-svg-axis-line" paint-order="fill stroke markers" d=" M 0 200 L 400 200" stroke-opacity="0.9" stroke-miterlimit="10" stroke-width="1.5" stroke-dasharray=""/></g></g><g><g><path fill="none" stroke="rgb(0,0,0)" class="dcg-svg-tickmark" paint-order="fill stroke markers" d="" stroke-opacity="0.9" stroke-miterlimit="2" stroke-width="1.5" stroke-dasharray=""/></g></g></g></g><g id="expressions-65e79906"><g id="sketch-65e79906"><title>Expression 6</title><path fill="#c74440" stroke="none" paint-order="stroke fill markers" d="" fill-opacity="0.4"/><g><path fill="none" stroke="#c74440" class="dcg-svg-curve" paint-order="fill stroke markers" d=" M 200 200 L 200 200 L 400 200" stroke-linecap="round" stroke-linejoin="round" stroke-miterlimit="10" stroke-width="2.5" stroke-dasharray=""/></g></g><g id="sketch-65e79906"><title>Expression 8</title><path fill="#fa7e19" stroke="none" paint-order="stroke fill markers" d="" fill-opacity="0.4"/><g><path fill="none" stroke="#fa7e19" class="dcg-svg-curve" paint-order="fill stroke markers" d=" M -2.842170943040401e-14 400.0000000000002 L -2.842170943040401e-14 400.0000000000002 L 200 200" stroke-linecap="round" stroke-linejoin="round" stroke-miterlimit="10" stroke-width="2.5" stroke-dasharray=""/></g></g><g id="sketch-65e79906"><title>Expression 10</title><g><path fill="none" stroke="#2d70b3" class="dcg-svg-curve" paint-order="fill stroke markers" d=" M 345.13422818791946 200 L 345.13422818791946 200 L 345.12786116048926 194.52958472859856 L 344.91523867708963 189.05965428052608 L 344.49638851669 183.59798767053925 L 343.87163193708506 178.15236249414284 L 343.04158360671386 172.7305438521559 L 342.0071511183834 167.34027327843154 L 340.76953408503914 161.98925768651733 L 339.33022281832217 156.68515835103818 L 337.69099659124515 151.43557993955358 L 335.8539214869191 146.2480596105913 L 333.82134783585093 141.13005619348405 L 331.5959072449268 136.088939465541 L 328.7596943705331 130.31450591856262 L 325.6700307274672 124.66596832989694 L 322.33250620921416 119.15445405175508 L 318.75319936219483 113.79084216768152 L 314.93866635580434 108.58574202830006 L 310.8959290094029 103.54947227725206 L 306.6324618980511 98.69204040876902 L 302.15617856060487 94.02312289735373 L 297.47541683556096 89.55204593899434 L 292.5989233517787 85.28776684220801 L 287.53583720288293 81.23885610600801 L 282.2956728357839 77.41348022061055 L 276.88830218531905 73.81938522534834 L 271.3239360885361 70.46388105684036 L 265.6131050135833 67.35382671898324 L 259.7666391395588 64.49561630478192 L 253.7956478249835 61.895165898428445 L 247.71149850380712 59.55790138437254 L 241.52579504902585 57.48874718840645 L 235.25035564508462 55.69211597401571 L 228.89719021125245 54.17189931542728 L 222.4784774190941 52.931459366923804 L 216.00654134801394 51.97362154608658 L 209.49382782361687 51.300668246690435 L 202.95288048431397 50.914333594996094 L 196.3963166221955 50.81579926118252 L 189.83680284470208 51.00569133563073 L 183.2870306040409 51.48407827771757 L 176.7596916416227 52.25046994270829 L 170.26745339502918 53.30381769025169 L 163.82293441516435 54.6425155758883 L 157.43867984129582 56.26440262488069 L 151.12713698165038 58.166766185574346 L 144.9006310470926 60.34634635739701 L 138.77134108519186 62.79934148651219 L 132.7512761616626 65.52141472005829 L 126.85225183575184 68.50770160783864 L 121.08586697564918 71.75281873827586 L 115.46348095939985 75.25087339341911 L 109.99619130612327 78.9954742057901 L 104.69481178156845 82.97974279788552 L 99.56985102118439 87.19632638321679 L 94.63149171294084 91.63741130587088 L 89.88957038111334 96.29473749371974 L 85.35355781113807 101.15961379859692 L 81.03254015445971 106.22293419499813 L 76.93520075103152 111.47519480715394 L 73.06980270578957 116.90651173267258 L 69.44417225401503 122.50663962935393 L 66.06568294901567 128.26499103025077 L 62.94124070401372 134.1706563505831 L 60.47023104751335 139.34141460422094 L 58.19435276885508 144.60494660104123 L 56.11708973685015 149.95388642489053 L 54.241647686177714 155.38073730934235 L 52.57094930204693 160.87788214304624 L 51.10762970177262 166.43759415974208 L 49.85403232020323 172.05204779794062 L 48.81220520537164 177.71332971500846 L 47.9838977301643 183.41344994015517 L 47.37055772521691 189.14435315060757 L 46.97332903765101 194.89793005505425 L 46.79304951966532 200.66602886827755 L 46.83024945038673 206.44046686073244 L 47.08515039377312 212.21304196671335 L 47.55766449474183 217.97554443463707 L 48.247394215075246 223.7197685028974 L 49.153632510030405 229.4375240846826 L 50.27536344595191 235.12064844512003 L 51.611263258559376 240.76101785409813 L 53.15970185095182 246.35055919813033 L 54.91874472974365 251.88126153466595 L 56.88615537711922 257.3451875723104 L 59.0593980559708 262.73448506050687 L 61.43564104466114 268.04139807233435 L 64.01176029733784 273.25827816421605 L 67.26528597942976 279.220808026315 L 70.78030331917722 285.03881611985474 L 74.5503913458587 290.70083200386665 L 78.56862582684658 296.1956705774539 L 82.82759195069863 301.51245416472335 L 87.31939797960321 306.6406340358292 L 92.03568984610052 311.5700113215733 L 96.96766666713724 316.2907572801252 L 102.10609714668671 320.79343287561613 L 107.44133683640993 325.06900762964744 L 112.9633462221132 329.10887770809904 L 118.66170960212025 332.90488320706163 L 124.52565472208387 336.44932460321434 L 130.54407312924417 339.7349783355394 L 136.70554120769833 342.75511148691 L 142.99834185485852 345.50349553578076 L 149.41048675798578 347.9744191499792 L 155.92973922845394 350.16269999640974 L 162.54363755026438 352.0636955423583 L 169.23951879826288 353.6733128260038 L 176.00454308054375 354.9880171757128 L 182.825718158633 356.0048398597048 L 189.6899243982428 356.7213846497224 L 196.58394000268638 357.13583328442735 L 202.50674310799187 357.2496783893797 L 208.43327199634632 357.14022172940827 L 214.35510555821818 356.8073443872651 L 220.26381902403108 356.25124510243165 L 226.15099594970005 355.4724403775325 L 232.00824020496364 354.47176413240913 L 237.82718794743772 353.2503669057927 L 243.59951956531228 351.80971460516366 L 249.31697157164254 350.15158680602894 L 255.9070411352583 347.9450464457291 L 262.3983862595667 345.44920822378896 L 268.7783043166393 342.66848935166024 L 275.0342903275305 339.6078649104977 L 281.1540614675929 336.27285900662685 L 287.12558117596893 332.66953485036595 L 292.9370828219535 328.80448377591586 L 298.57709288170156 324.6848132221172 L 304.0344535796537 320.3181336959098 L 309.2983449500131 315.71254474234433 L 314.35830627468135 310.87661994694565 L 319.20425685520166 305.819390998151 L 323.82651607749403 300.5503308394002 L 328.21582272947796 295.0793359422703 L 332.3633535330772 289.4167077337897 L 336.2607408535646 283.5731332127583 L 339.9000895507538 277.55966479152164 L 343.27399293815915 271.38769940119874 L 345.94939065664727 265.9801682807479 L 348.42064207764054 260.4723532393863 L 350.683987580856 254.87196324088706 L 352.73595872731244 249.1868482161344 L 354.5733835455336 243.42498806180728 L 356.1933914019937 237.59448144081307 L 357.5934174483707 231.70353440018604 L 358.7712066387643 225.76044882245085 L 359.7248173106433 219.77361072669459 L 360.4526243239002 213.7514784358419 L 360.95332175301223 207.7025706268188 L 361.2259251279422 201.63545428049846 L 361.26977322004836 195.55873254846202 L 361.0845293699165 189.48103255377012 L 360.67018235467685 183.41099314303352 L 360.0270467930238 177.35725260717842 L 359.15576308680863 171.32843638835774 L 358.05729689873937 165.33314479049886 L 356.7329381663796 159.37994071100553 L 355.1842996532995 153.477337411104 L 353.4133150388943 147.6337863423097 L 351.42223654904274 141.85766504641262 L 349.21363213043566 136.1572651463082 L 346.7903821720603 130.54078044488602 L 344.1556757779721 125.01629514905657 L 341.3130065961326 119.59177223583637 L 338.2661682087298 114.27504197723174 L 334.4589468285544 108.21867371360567 L 330.386394600775 102.33141584120767 L 326.0560242790913 96.62489460032072 L 321.47585814000007 91.11040242105398 L 316.65441314819407 85.79887558982495 L 311.6006851428847 80.70087257521442 L 306.32413207436286 75.82655305612381 L 300.83465632199477 71.1856576938572 L 295.1425861266721 66.78748868836865 L 289.25865617250156 62.64089115744565 L 284.0710027473309 59.29325308535846 L 278.75777335361084 56.14158483561678 L 273.32637279941576 53.19059779164411 L 267.7843826829306 50.44472347343418 L 262.13955081240823 47.90810690273989 L 256.39978037709875 45.58460036833475 L 250.57311888427589 43.47775760069351 L 244.6677468778505 41.59082836487019 L 238.69196645438046 39.926753479761345 L 232.6541895925943 38.488160271347084 L 226.56292631283623 37.27735846689299 L 220.42677268309828 36.296336536474655 L 214.25439868853664 35.546758487556104 L 208.05453598159934 35.02996111771759 L 201.8359655300633 34.74695172997667 L 195.60750518046135 34.69840631449722 L 189.3779971545093 34.884668199817156 L 183.15629549626334 35.305747176062226 L 176.9512534878292 35.961319091943494 L 170.77171105150887 36.85072592666242 L 164.6264821563106 37.97297633717204 L 158.5243422467627 39.326746680567425 L 152.47401571196417 40.91038251069844 L 146.48416341275572 42.72190054742563 L 140.5633702848569 44.758991116258414 L 134.72013303569506 47.01902105544963 L 128.9628479525743 49.49903708694259 L 123.29979883965886 52.19576964691137 L 117.73914510111479 55.105637170964286 L 112.2889099875392 58.22475082843761 L 106.9569690226086 61.54891969955389 L 101.75103862663987 65.0736563885797 L 96.67866495348109 68.79418306549965 L 91.74721295689349 72.70543792808384 L 86.1815201059326 77.50249011322748 L 80.8284334255749 82.5429256040164 L 75.69859730315123 87.8173201509821 L 70.80223830503843 93.31578391344148 L 66.14914480911139 99.02797998665872 L 61.74864745888138 104.94314382008827 L 57.60960047830585 111.05010349025281 L 53.74036388464566 117.33730079009695 L 50.6445862364005 122.86075332538967 L 47.75744704881467 128.5001624465452 L 45.08329022367826 134.2476454180598 L 42.62616177039513 140.09515675606244 L 40.389803707829856 146.03449948842632 L 38.37764839188122 152.0573366433879 L 36.59281327733896 158.1552029505919 L 35.03809612198452 164.31951673812463 L 33.7159706402654 170.54159200883007 L 32.628582613247005 176.8126506789106 L 31.7777464609008 183.12383496156693 L 31.25049361022164 188.4073695047925 L 30.889224660449116 193.70737769213014 L 30.694454311344344 199.01864388327976 L 30.666533336102873 204.33593635819497 L 30.8056480790907 209.65401247045023 L 31.111820115624113 214.96762381628722 L 31.584906074282316 220.27152141425066 L 32.22459762208274 225.56046089030232 L 33.03042161268675 230.82920766328624 L 34.215795862701185 237.11770157537558 L 35.63806043220342 243.360622612736 L 37.29546331910856 249.54904515696936 L 39.185916150420354 255.67411094281627 L 41.30699677158859 261.72704173718876 L 43.655952313882466 267.69915191865937 L 46.22970273594757 273.58186093936484 L 49.024844835042586 279.36670565145914 L 52.03765672277163 285.04535248040366 L 55.26410275946384 290.6096094275902 L 58.69983894069122 296.0514378850145 L 62.96650180862076 302.23500722619474 L 67.50380798897751 308.22903020475405 L 72.30333597513773 314.0216596713812 L 77.35614559698055 319.6014226868241 L 78.84501750852702 321.1549824914731" stroke-linecap="round" stroke-linejoin="round" stroke-miterlimit="10" stroke-width="5" stroke-dasharray=""/></g></g><g id="sketch-65e79906"><title>Expression 13</title><path fill="#2d70b3" stroke="none" paint-order="stroke fill markers" d="" fill-opacity="0.4"/><g><path fill="none" stroke="#2d70b3" class="dcg-svg-curve" paint-order="fill stroke markers" d=" M 78.84501750852702 321.1549824914731 L 78.84501750852702 321.1549824914731 L 64.22987515605308 314.33982968748904" stroke-linecap="round" stroke-linejoin="round" stroke-miterlimit="10" stroke-width="5" stroke-dasharray=""/></g></g><g id="sketch-65e79906"><title>Expression 14</title><path fill="#2d70b3" stroke="none" paint-order="stroke fill markers" d="" fill-opacity="0.4"/><g><path fill="none" stroke="#2d70b3" class="dcg-svg-curve" paint-order="fill stroke markers" d=" M 78.84501750852702 321.1549824914731 L 78.84501750852702 321.1549824914731 L 72.02986470454296 306.5398401389992" stroke-linecap="round" stroke-linejoin="round" stroke-miterlimit="10" stroke-width="5" stroke-dasharray=""/></g></g></g><g id="labels-65e79906"/><g id="labels-65e79906"/></g></svg>