<svg version="1.1" xmlns="http://www.w3.org/2000/svg" xmlns:xlink="http://www.w3.org/1999/xlink" width="800" height="800"><defs/><g transform="scale(2,2)"><g id="background-ce02ce13"><rect fill="white" stroke="none" x="0" y="0" width="400" height="400" class="dcg-svg-background"/></g><g id="graphpaper-ce02ce13"><g id="axis-ce02ce13"><g id="yaxis-ce02ce13"><title>Y axis</title><g><path fill="none" stroke="rgb(0,0,0)" class="dcg-svg-axis-line" paint-order="fill stroke markers" d=" M 200 0 L 200 400" stroke-opacity="0.9" stroke-miterlimit="10" stroke-width="1.5" stroke-dasharray=""/></g></g><g id="xaxis-ce02ce13"><title>X axis</title><g><path fill="none" stroke="rgb(0,0,0)" class="dcg-svg-axis-line" paint-order="fill stroke markers" d=" M 0 200 L 400 200" stroke-opacity="0.9" stroke-miterlimit="10" stroke-width="1.5" stroke-dasharray=""/></g></g><g><g><path fill="none" stroke="rgb(0,0,0)" class="dcg-svg-tickmark" paint-order="fill stroke markers" d="" stroke-opacity="0.9" stroke-miterlimit="2" stroke-width="1.5" stroke-dasharray=""/></g></g></g></g><g id="expressions-ce02ce13"><g id="sketch-ce02ce13"><title>Expression 6</title><path fill="#c74440" stroke="none" paint-order="stroke fill markers" d="" fill-opacity="0.4"/><g><path fill="none" stroke="#c74440" class="dcg-svg-curve" paint-order="fill stroke markers" d=" M 200 200 L 200 200 L 400 200" stroke-linecap="round" stroke-linejoin="round" stroke-miterlimit="10" stroke-width="2.5" stroke-dasharray=""/></g></g><g id="sketch-ce02ce13"><title>Expression 8</title><path fill="#fa7e19" stroke="none" paint-order="stroke fill markers" d="" fill-opacity="0.4"/><g><path fill="none" stroke="#fa7e19" class="dcg-svg-curve" paint-order="fill stroke markers" d=" M -2.842170943040401e-14 400.00000000000006 L -2.842170943040401e-14 400.00000000000006 L 200 200" stroke-linecap="round" stroke-linejoin="round" stroke-miterlimit="10" stroke-width="2.5" stroke-dasharray=""/></g></g><g id="sketch-ce02ce13"><title>Expression 10</title><g><path fill="none" stroke="#2d70b3" class="dcg-svg-curve" paint-order="fill stroke markers" d=" M 93.09854486046498 306.901455139535 L 93.09854486046498 306.901455139535 L 97.97841441641945 311.4150781907315 L 103.04828617218688 315.70650627856287 L 108.29806666648832 319.7677675884294 L 113.71732918695497 323.5913478089714 L 119.2953344646754 327.17020400677353 L 125.02105194378356 330.4977775667875 L 130.88318158398704 333.56800617476466 L 136.87017615296003 336.37533481987975 L 142.97026396464122 338.9147257976648 L 149.17147201867436 341.1816676953392 L 155.46164949551962 343.1721833436234 L 161.82849156113863 344.8828367211536 L 168.2595634346263 346.3107387996672 L 174.74232467171836 347.4535523202018 L 181.2641536167589 348.30949549263994 L 187.81237197545107 348.87734461303177 L 194.37426946055425 349.1564355952371 L 200.93712846261934 349.14666441553925 L 207.48824869787617 348.8484864709952 L 214.01497178550434 348.26291485439356 L 220.50470570672508 347.39151755078905 L 226.94494909845355 346.23641356266916 L 233.32331533464344 344.8002679728752 L 239.62755634893517 343.0862859564494 L 245.8455861527933 341.0982057546016 L 251.96550400397618 338.84029062598535 L 257.97561718092953 336.3173197924309 L 263.86446331952413 333.5345783982147 L 269.6208322694756 330.4978465038237 L 275.2337874287773 327.2133871370216 L 280.69268651555666 323.6879334258134 L 285.9872017379153 319.92867483965443 L 291.10733932354185 315.9432425669373 L 296.0434583721872 311.7396940584264 L 300.7862889954609 307.3264967678827 L 305.3269497098446 302.7125111226323 L 309.6569640503192 297.90697275827745 L 313.76827637356416 292.91947405312555 L 317.65326682130745 287.75994499921603 L 321.30476541607896 282.4386334480581 L 324.7160652633462 276.9660847703457 L 327.8809348357846 271.35312096999735 L 330.79362931725416 265.61081929386324 L 333.44890098591054 259.7504903793591 L 335.516352763349 254.64213971214636 L 337.3885009114773 249.46290390874836 L 339.0629418922773 244.22024093949534 L 340.5375566312774 238.92168915644845 L 341.8105131588337 233.57485645559365 L 342.880268838956 228.18740935424555 L 343.7455721830447 222.76706199934176 L 344.4054642464971 217.32156512238478 L 344.85927960674246 211.85869495684545 L 345.106646921862 206.38624213387385 L 345.14748906955015 200.9120005721739 L 345.13422818791946 200" stroke-linecap="round" stroke-linejoin="round" stroke-miterlimit="10" stroke-width="5" stroke-dasharray=""/></g></g><g id="sketch-ce02ce13"><title>Expression 13</title><path fill="#2d70b3" stroke="none" paint-order="stroke fill markers" d="" fill-opacity="0.4"/><g><path fill="none" stroke="#2d70b3" class="dcg-svg-curve" paint-order="fill stroke markers" d=" M 93.09854486046498 306.901455139535 L 93.09854486046498 306.901455139535 L 107.71368721293892 313.7166079435191" stroke-linecap="round" stroke-linejoin="round" stroke-miterlimit="10" stroke-width="5" stroke-dasharray=""/></g></g><g id="sketch-ce02ce13"><title>Expression 14</title><path fill="#2d70b3" stroke="none" paint-order="stroke fill markers" d="" fill-opacity="0.4"/><g><path fill="none" stroke="#2d70b3" class="dcg-svg-curve" paint-order="fill stroke markers" d=" M 93.09854486046498 306.901455139535 L 93.09854486046498 306.901455139535 L 99.91369766444905 321.51659749200894" stroke-linecap="round" stroke-linejoin="round" stroke-miterlimit="10" stroke-width="5" stroke-dasharray=""/></g></g></g><g id="labels-ce02ce13"/><g id="labels-ce02ce13"/></g></svg>