<svg version="1.1" xmlns="http://www.w3.org/2000/svg" xmlns:xlink="http://www.w3.org/1999/xlink" width="800" height="800"><defs/><g transform="scale(2,2)"><g id="background-f1b1ed8a"><rect fill="white" stroke="none" x="0" y="0" width="400" height="400" class="dcg-svg-background"/></g><g id="graphpaper-f1b1ed8a"><g id="axis-f1b1ed8a"><g id="yaxis-f1b1ed8a"><title>Y axis</title><g><path fill="none" stroke="rgb(0,0,0)" class="dcg-svg-axis-line" paint-order="fill stroke markers" d=" M 200 0 L 200 400" stroke-opacity="0.9" stroke-miterlimit="10" stroke-width="1.5" stroke-dasharray=""/></g></g><g id="xaxis-f1b1ed8a"><title>X axis</title><g><path fill="none" stroke="rgb(0,0,0)" class="dcg-svg-axis-line" paint-order="fill stroke markers" d=" M 0 200 L 400 200" stroke-opacity="0.9" stroke-miterlimit="10" stroke-width="1.5" stroke-dasharray=""/></g></g><g><g><path fill="none" stroke="rgb(0,0,0)" class="dcg-svg-tickmark" paint-order="fill stroke markers" d="" stroke-opacity="0.9" stroke-miterlimit="2" stroke-width="1.5" stroke-dasharray=""/></g></g></g></g><g id="expressions-f1b1ed8a"><g id="sketch-f1b1ed8a"><title>Expression 6</title><path fill="#c74440" stroke="none" paint-order="stroke fill markers" d="" fill-opacity="0.4"/><g><path fill="none" stroke="#c74440" class="dcg-svg-curve" paint-order="fill stroke markers" d=" M 200 200 L 200 200 L 400 200" stroke-linecap="round" stroke-linejoin="round" stroke-miterlimit="10" stroke-width="2.5" stroke-dasharray=""/></g></g><g id="sketch-f1b1ed8a"><title>Expression 8</title><path fill="#fa7e19" stroke="none" paint-order="stroke fill markers" d="" fill-opacity="0.4"/><g><path fill="none" stroke="#fa7e19" class="dcg-svg-curve" paint-order="fill stroke markers" d=" M -2.842170943040401e-14 5.684341886080802e-14 L -2.842170943040401e-14 5.684341886080802e-14 L 200 200" stroke-linecap="round" stroke-linejoin="round" stroke-miterlimit="10" stroke-width="2.5" stroke-dasharray=""/></g></g><g id="sketch-f1b1ed8a"><title>Expression 10</title><g><path fill="none" stroke="#2d70b3" class="dcg-svg-curve" paint-order="fill stroke markers" d=" M 90.24783939007733 90.24783939007737 L 90.24783939007733 90.24783939007737 L 85.6116330018728 95.25580591984657 L 81.20337230602843 100.45904052995284 L 77.03125508667134 105.84719181793393 L 73.10301006497286 111.40956544422883 L 69.42588260974753 117.13514534435089 L 66.00662140549397 123.01261553383456 L 62.85146610234327 129.0303824628201 L 60.361603622924434 134.29115837918997 L 58.0732803728707 139.63871078615182 L 55.98949724682589 145.06532816403472 L 54.11296042033976 150.56319617524474 L 52.44607786660535 156.12440891497565 L 50.99095630220771 161.74098027827927 L 49.74939856570151 167.40485542715714 L 48.72290143221397 173.10792234120595 L 47.91265386664355 178.84202343525845 L 47.319535717396434 184.59896722737886 L 46.9441168519719 190.3705400405283 L 46.7866567350776 196.14851772118084 L 46.84710444932165 201.924677358174 L 47.125099157900166 207.6908089850942 L 47.619971008066784 213.4387272495433 L 48.330742473546195 219.16028303269968 L 49.256130133428 224.84737500267943 L 50.3945468844602 230.49196108531876 L 51.7441045830457 236.08606983613504 L 53.302617112638075 241.62181169738687 L 55.067603871632 247.09139012433658 L 57.0362936762499 252.48711256502654 L 59.205629072341 257.80140127810523 L 61.57227104943584 263.0268039734953 L 64.1326041498306 268.15600426096046 L 67.35926382355962 274.0089248338735 L 70.8376313535856 279.71003409534484 L 74.56060266759506 285.2485263968099 L 78.52061068043868 290.61392695041013 L 82.70964063847396 295.7961116294765 L 87.11924630888602 300.7853260600785 L 91.74056698134247 305.5722039676557 L 96.56434524781284 310.14778474425634 L 101.58094552492184 314.50353020346347 L 106.78037328181787 318.63134049171754 L 112.1522949352235 322.5235691264266 L 117.68605837209762 326.17303713299293 L 123.37071405917777 329.5730462546751 L 129.19503669759396 332.717391211041 L 135.14754737974886 335.6003709826516 L 141.21653620474882 338.2167991015351 L 147.3900853078423 340.56201292897265 L 153.6560922585894 342.63188190410824 L 160.0022937818339 344.4228147489175 L 166.41628975499253 345.9317656171173 L 172.88556743470886 347.1562391766628 L 179.39752586554457 348.0942946175678 L 185.93950042309712 348.7445485788799 L 192.49878744374192 349.1061769907459 L 199.06266889310297 349.1789158296199 L 205.61843702534975 348.9630607867731 L 212.15341898550778 348.45946585237766 L 218.65500130715375 347.6695408195326 L 225.11065425813752 346.59524771469455 L 231.50795598734214 345.2390961630475 L 237.83461642594705 343.60413769939765 L 244.0785008972068 341.6939590372147 L 250.2276533893916 339.51267431043993 L 256.2703194472591 337.0649163046546 L 262.19496863823093 334.3558266961386 L 267.99031655034344 331.39104531924625 L 273.6453462800103 328.1766984843824 L 279.1493293686909 324.71938637066864 L 284.49184614868955 321.0261695191522 L 289.66280545951446 317.1045544541132 L 294.65246369750923 312.96247846167995 L 299.4514431628157 308.60829355654994 L 304.0507496691474 304.0507496691474 L 308.44178938333584 299.2989770870076 L 312.61638486315417 294.362468185579 L 316.56679026353015 289.2510584849573 L 320.2857056829157 283.97490707031886 L 323.76629062329454 278.5444764150001 L 327.00217653906896 272.9705116462674 L 329.9874784518726 267.26401929484604 L 332.7168056102038 261.436245570212 L 334.84877574287964 256.3531651666422 L 336.78630612417595 251.19673335842617 L 338.5268990526788 245.97437893048362 L 340.06834031897796 240.693614640529 L 341.4087019837448 235.36202641299644 L 342.5463447443656 229.98726244296907 L 343.4799198872978 224.57702222576248 L 344.20837082390915 219.13904552789577 L 344.73093420816 213.68110131524872 L 345.04714063508516 208.21097665424128 L 345.15681491963136 202.73646560189252 L 345.13422818791946 200" stroke-linecap="round" stroke-linejoin="round" stroke-miterlimit="10" stroke-width="5" stroke-dasharray=""/></g></g><g id="sketch-f1b1ed8a"><title>Expression 13</title><path fill="#2d70b3" stroke="none" paint-order="stroke fill markers" d="" fill-opacity="0.4"/><g><path fill="none" stroke="#2d70b3" class="dcg-svg-curve" paint-order="fill stroke markers" d=" M 90.24783939007733 90.24783939007737 L 90.24783939007733 90.24783939007737 L 83.43268658609327 104.86298174255131" stroke-linecap="round" stroke-linejoin="round" stroke-miterlimit="10" stroke-width="5" stroke-dasharray=""/></g></g><g id="sketch-f1b1ed8a"><title>Expression 14</title><path fill="#2d70b3" stroke="none" paint-order="stroke fill markers" d="" fill-opacity="0.4"/><g><path fill="none" stroke="#2d70b3" class="dcg-svg-curve" paint-order="fill stroke markers" d=" M 90.24783939007733 90.24783939007737 L 90.24783939007733 90.24783939007737 L 75.63269703760339 97.06299219406142" stroke-linecap="round" stroke-linejoin="round" stroke-miterlimit="10" stroke-width="5" stroke-dasharray=""/></g></g></g><g id="labels-f1b1ed8a"/><g id="labels-f1b1ed8a"/></g></svg>
