<svg xmlns="http://www.w3.org/2000/svg" id="diagram" width="160" height="160"><defs><clipPath id="clipPath-0"><rect x="5.0" y="5.0" width="150.0" height="150.0"/></clipPath><clipPath id="clipPath-1"><rect x="5.0" y="5.0" width="150.0" height="150.0"/></clipPath><marker id="arrow-head-end-2_None_24_60-black" markerWidth="9.0" markerHeight="8.0" markerUnits="userSpaceOnUse" orient="auto-start-reverse" refX="6.5" refY="4.0"><path d="M 9.0 4.0L 0.0 8.0L 1.7 5.0L 1.7 3.0L 0.0 0.0Z" fill="black" stroke="none"/></marker><marker id="arrow-head-end-2_None_24_60-black-outline" markerWidth="13.0" markerHeight="12.0" markerUnits="userSpaceOnUse" orient="auto-start-reverse" refX="8.5" refY="6.0"><path d="M 11.8 7.8 L 2.8 11.8 A 2 2 0 0 1 0.0 10.0 L 0.0 2.0 A 2 2 0 0 1 2.8 0.2 L 11.8 4.2 A 2 2 0 0 1 11.8 7.8 Z" fill="white" stroke="none"/></marker></defs><g id="grid-axes"><g id="grid" stroke="#ccc" stroke-width="1"><line id="line-0" x1="14.8" y1="155.0" x2="14.8" y2="5.0"/><line id="line-1" x1="27.8" y1="155.0" x2="27.8" y2="5.0"/><line id="line-2" x1="40.9" y1="155.0" x2="40.9" y2="5.0"/><line id="line-3" x1="53.9" y1="155.0" x2="53.9" y2="5.0"/><line id="line-4" x1="67.0" y1="155.0" x2="67.0" y2="5.0"/><line id="line-5" x1="80.0" y1="155.0" x2="80.0" y2="5.0"/><line id="line-6" x1="93.0" y1="155.0" x2="93.0" y2="5.0"/><line id="line-7" x1="106.1" y1="155.0" x2="106.1" y2="5.0"/><line id="line-8" x1="119.1" y1="155.0" x2="119.1" y2="5.0"/><line id="line-9" x1="132.2" y1="155.0" x2="132.2" y2="5.0"/><line id="line-10" x1="145.2" y1="155.0" x2="145.2" y2="5.0"/><line id="line-11" x1="5.0" y1="145.2" x2="155.0" y2="145.2"/><line id="line-12" x1="5.0" y1="132.2" x2="155.0" y2="132.2"/><line id="line-13" x1="5.0" y1="119.1" x2="155.0" y2="119.1"/><line id="line-14" x1="5.0" y1="106.1" x2="155.0" y2="106.1"/><line id="line-15" x1="5.0" y1="93.0" x2="155.0" y2="93.0"/><line id="line-16" x1="5.0" y1="80.0" x2="155.0" y2="80.0"/><line id="line-17" x1="5.0" y1="67.0" x2="155.0" y2="67.0"/><line id="line-18" x1="5.0" y1="53.9" x2="155.0" y2="53.9"/><line id="line-19" x1="5.0" y1="40.9" x2="155.0" y2="40.9"/><line id="line-20" x1="5.0" y1="27.8" x2="155.0" y2="27.8"/><line id="line-21" x1="5.0" y1="14.8" x2="155.0" y2="14.8"/></g><g id="axes" stroke="black" stroke-width="2"><line id="line-22" x1="5.0" y1="106.1" x2="155.0" y2="106.1" stroke="black" stroke-width="2" marker-end="url(#arrow-head-end-2_None_24_60-black)" marker-start="url(#arrow-head-end-2_None_24_60-black)"/><line id="line-23" x1="40.9" y1="155.0" x2="40.9" y2="5.0" stroke="black" stroke-width="2" marker-end="url(#arrow-head-end-2_None_24_60-black)" marker-start="url(#arrow-head-end-2_None_24_60-black)"/></g></g><path id="path-0" d="M 106.1 67.0 L 106.0 64.5 L 105.8 62.1 L 105.4 59.6 L 104.9 57.2 L 104.2 54.9 L 103.3 52.6 L 102.4 50.3 L 101.2 48.1 L 100.0 46.0 L 98.6 44.0 L 97.1 42.0 L 95.5 40.2 L 93.7 38.4 L 91.9 36.8 L 90.0 35.3 L 87.9 33.9 L 85.8 32.7 L 83.6 31.6 L 81.4 30.6 L 79.0 29.7 L 76.7 29.1 L 74.3 28.5 L 71.9 28.1 L 69.4 27.9 L 67.0 27.8 L 64.5 27.9 L 62.1 28.1 L 59.6 28.5 L 57.2 29.1 L 54.9 29.7 L 52.6 30.6 L 50.3 31.6 L 48.1 32.7 L 46.0 33.9 L 44.0 35.3 L 42.0 36.8 L 40.2 38.4 L 38.4 40.2 L 36.8 42.0 L 35.3 44.0 L 33.9 46.0 L 32.7 48.1 L 31.6 50.3 L 30.6 52.6 L 29.7 54.9 L 29.1 57.2 L 28.5 59.6 L 28.1 62.1 L 27.9 64.5 L 27.8 67.0 L 27.9 69.4 L 28.1 71.9 L 28.5 74.3 L 29.1 76.7 L 29.7 79.0 L 30.6 81.4 L 31.6 83.6 L 32.7 85.8 L 33.9 87.9 L 35.3 90.0 L 36.8 91.9 L 38.4 93.7 L 40.2 95.5 L 42.0 97.1 L 44.0 98.6 L 46.0 100.0 L 48.1 101.2 L 50.3 102.4 L 52.6 103.3 L 54.9 104.2 L 57.2 104.9 L 59.6 105.4 L 62.1 105.8 L 64.5 106.0 L 67.0 106.1 L 69.4 106.0 L 71.9 105.8 L 74.3 105.4 L 76.7 104.9 L 79.0 104.2 L 81.4 103.3 L 83.6 102.4 L 85.8 101.2 L 87.9 100.0 L 90.0 98.6 L 91.9 97.1 L 93.7 95.5 L 95.5 93.7 L 97.1 91.9 L 98.6 90.0 L 100.0 87.9 L 101.2 85.8 L 102.4 83.6 L 103.3 81.4 L 104.2 79.0 L 104.9 76.7 L 105.4 74.3 L 105.8 71.9 L 106.0 69.4 Z" stroke="blue" stroke-width="2" fill="none"/></svg>