<svg xmlns="http://www.w3.org/2000/svg" id="diagram" width="160" height="160"><defs><clipPath id="clipPath-0"><rect x="5.0" y="5.0" width="150.0" height="150.0"/></clipPath><clipPath id="clipPath-1"><rect x="5.0" y="5.0" width="150.0" height="150.0"/></clipPath><marker id="arrow-head-end-2_None_24_60-black" markerWidth="9.0" markerHeight="8.0" markerUnits="userSpaceOnUse" orient="auto-start-reverse" refX="6.5" refY="4.0"><path d="M 9.0 4.0L 0.0 8.0L 1.7 5.0L 1.7 3.0L 0.0 0.0Z" fill="black" stroke="none"/></marker><marker id="arrow-head-end-2_None_24_60-black-outline" markerWidth="13.0" markerHeight="12.0" markerUnits="userSpaceOnUse" orient="auto-start-reverse" refX="8.5" refY="6.0"><path d="M 11.8 7.8 L 2.8 11.8 A 2 2 0 0 1 0.0 10.0 L 0.0 2.0 A 2 2 0 0 1 2.8 0.2 L 11.8 4.2 A 2 2 0 0 1 11.8 7.8 Z" fill="white" stroke="none"/></marker><marker id="arrow-head-end-2_None_24_60-blue" markerWidth="9.0" markerHeight="8.0" markerUnits="userSpaceOnUse" orient="auto-start-reverse" refX="6.5" refY="4.0"><path d="M 9.0 4.0L 0.0 8.0L 1.7 5.0L 1.7 3.0L 0.0 0.0Z" fill="blue" stroke="none"/></marker><marker id="arrow-head-end-2_None_24_60-blue-outline" markerWidth="13.0" markerHeight="12.0" markerUnits="userSpaceOnUse" orient="auto-start-reverse" refX="8.5" refY="6.0"><path d="M 11.8 7.8 L 2.8 11.8 A 2 2 0 0 1 0.0 10.0 L 0.0 2.0 A 2 2 0 0 1 2.8 0.2 L 11.8 4.2 A 2 2 0 0 1 11.8 7.8 Z" fill="white" stroke="none"/></marker></defs><g id="grid-axes"><g id="grid" stroke="#ccc" stroke-width="1"><line id="line-0" x1="14.8" y1="155.0" x2="14.8" y2="5.0"/><line id="line-1" x1="27.8" y1="155.0" x2="27.8" y2="5.0"/><line id="line-2" x1="40.9" y1="155.0" x2="40.9" y2="5.0"/><line id="line-3" x1="53.9" y1="155.0" x2="53.9" y2="5.0"/><line id="line-4" x1="67.0" y1="155.0" x2="67.0" y2="5.0"/><line id="line-5" x1="80.0" y1="155.0" x2="80.0" y2="5.0"/><line id="line-6" x1="93.0" y1="155.0" x2="93.0" y2="5.0"/><line id="line-7" x1="106.1" y1="155.0" x2="106.1" y2="5.0"/><line id="line-8" x1="119.1" y1="155.0" x2="119.1" y2="5.0"/><line id="line-9" x1="132.2" y1="155.0" x2="132.2" y2="5.0"/><line id="line-10" x1="145.2" y1="155.0" x2="145.2" y2="5.0"/><line id="line-11" x1="5.0" y1="145.2" x2="155.0" y2="145.2"/><line id="line-12" x1="5.0" y1="132.2" x2="155.0" y2="132.2"/><line id="line-13" x1="5.0" y1="119.1" x2="155.0" y2="119.1"/><line id="line-14" x1="5.0" y1="106.1" x2="155.0" y2="106.1"/><line id="line-15" x1="5.0" y1="93.0" x2="155.0" y2="93.0"/><line id="line-16" x1="5.0" y1="80.0" x2="155.0" y2="80.0"/><line id="line-17" x1="5.0" y1="67.0" x2="155.0" y2="67.0"/><line id="line-18" x1="5.0" y1="53.9" x2="155.0" y2="53.9"/><line id="line-19" x1="5.0" y1="40.9" x2="155.0" y2="40.9"/><line id="line-20" x1="5.0" y1="27.8" x2="155.0" y2="27.8"/><line id="line-21" x1="5.0" y1="14.8" x2="155.0" y2="14.8"/></g><g id="axes" stroke="black" stroke-width="2"><line id="line-22" x1="5.0" y1="80.0" x2="155.0" y2="80.0" stroke="black" stroke-width="2" marker-end="url(#arrow-head-end-2_None_24_60-black)" marker-start="url(#arrow-head-end-2_None_24_60-black)"/><line id="line-23" x1="80.0" y1="155.0" x2="80.0" y2="5.0" stroke="black" stroke-width="2" marker-end="url(#arrow-head-end-2_None_24_60-black)" marker-start="url(#arrow-head-end-2_None_24_60-black)"/></g></g><path id="graph-0" stroke="blue" stroke-width="2" fill="none" d="M 60.2 151.9 L 60.7 144.1 L 61.2 136.7 L 61.7 129.8 L 62.2 123.3 L 62.7 117.1 L 63.2 111.4 L 63.7 106.0 L 64.2 101.0 L 64.8 96.3 L 65.3 92.0 L 65.8 88.1 L 66.3 84.5 L 66.8 81.2 L 67.3 78.2 L 67.8 75.5 L 68.3 73.1 L 68.8 71.0 L 69.3 69.2 L 69.8 67.7 L 70.3 66.4 L 70.8 65.3 L 71.3 64.5 L 71.8 64.0 L 72.3 63.7 L 72.8 63.5 L 73.3 63.6 L 73.8 63.9 L 74.3 64.4 L 74.8 65.0 L 75.3 65.9 L 75.8 66.9 L 76.3 68.0 L 76.8 69.3 L 77.4 70.7 L 77.9 72.2 L 78.4 73.9 L 78.9 75.7 L 79.4 77.5 L 79.9 79.5 L 80.4 81.5 L 80.9 83.6 L 81.4 85.8 L 81.9 88.0 L 82.4 90.3 L 82.9 92.6 L 83.4 94.9 L 83.9 97.2 L 84.4 99.6 L 84.9 101.9 L 85.4 104.3 L 85.9 106.6 L 86.4 108.9 L 86.9 111.1 L 87.4 113.4 L 87.9 115.5 L 88.4 117.6 L 88.9 119.6 L 89.4 121.6 L 89.9 123.4 L 90.5 125.1 L 91.0 126.8 L 91.5 128.3 L 92.0 129.7 L 92.5 130.9 L 93.0 132.0 L 93.5 133.0 L 94.0 133.8 L 94.5 134.4 L 95.0 134.8 L 95.5 135.1 L 96.0 135.1 L 96.5 134.9 L 97.0 134.6 L 97.5 133.9 L 98.0 133.1 L 98.5 132.0 L 99.0 130.7 L 99.5 129.1 L 100.0 127.2 L 100.5 125.0 L 101.0 122.6 L 101.5 119.8 L 102.0 116.8 L 102.5 113.4 L 103.0 109.7 L 103.6 105.7 L 104.1 101.3 L 104.6 96.6 L 105.1 91.5 L 105.6 86.0 L 106.1 80.2 L 106.6 73.9 L 107.1 67.3 L 107.6 60.3 L 108.1 52.8 L 108.6 44.9 L 109.1 36.6 L 109.6 27.9 L 110.1 18.6 L 110.6 9.0" marker-end="url(#arrow-head-end-2_None_24_60-blue)" marker-start="url(#arrow-head-end-2_None_24_60-blue)" clip-path="url(#clipPath-1)"/></svg>