<svg xmlns="http://www.w3.org/2000/svg" id="diagram" width="160" height="160"><defs><clipPath id="clipPath-0"><rect x="5.0" y="5.0" width="150.0" height="150.0"/></clipPath><clipPath id="clipPath-1"><rect x="5.0" y="5.0" width="150.0" height="150.0"/></clipPath><marker id="arrow-head-end-2_None_24_60-black" markerWidth="9.0" markerHeight="8.0" markerUnits="userSpaceOnUse" orient="auto-start-reverse" refX="6.5" refY="4.0"><path d="M 9.0 4.0L 0.0 8.0L 1.7 5.0L 1.7 3.0L 0.0 0.0Z" fill="black" stroke="none"/></marker><marker id="arrow-head-end-2_None_24_60-black-outline" markerWidth="13.0" markerHeight="12.0" markerUnits="userSpaceOnUse" orient="auto-start-reverse" refX="8.5" refY="6.0"><path d="M 11.8 7.8 L 2.8 11.8 A 2 2 0 0 1 0.0 10.0 L 0.0 2.0 A 2 2 0 0 1 2.8 0.2 L 11.8 4.2 A 2 2 0 0 1 11.8 7.8 Z" fill="white" stroke="none"/></marker><marker id="arrow-head-end-2_None_24_60-orange" markerWidth="9.0" markerHeight="8.0" markerUnits="userSpaceOnUse" orient="auto-start-reverse" refX="6.5" refY="4.0"><path d="M 9.0 4.0L 0.0 8.0L 1.7 5.0L 1.7 3.0L 0.0 0.0Z" fill="orange" stroke="none"/></marker><marker id="arrow-head-end-2_None_24_60-orange-outline" markerWidth="13.0" markerHeight="12.0" markerUnits="userSpaceOnUse" orient="auto-start-reverse" refX="8.5" refY="6.0"><path d="M 11.8 7.8 L 2.8 11.8 A 2 2 0 0 1 0.0 10.0 L 0.0 2.0 A 2 2 0 0 1 2.8 0.2 L 11.8 4.2 A 2 2 0 0 1 11.8 7.8 Z" fill="white" stroke="none"/></marker><marker id="arrow-head-end-2_None_24_60-blue" markerWidth="9.0" markerHeight="8.0" markerUnits="userSpaceOnUse" orient="auto-start-reverse" refX="6.5" refY="4.0"><path d="M 9.0 4.0L 0.0 8.0L 1.7 5.0L 1.7 3.0L 0.0 0.0Z" fill="blue" stroke="none"/></marker><marker id="arrow-head-end-2_None_24_60-blue-outline" markerWidth="13.0" markerHeight="12.0" markerUnits="userSpaceOnUse" orient="auto-start-reverse" refX="8.5" refY="6.0"><path d="M 11.8 7.8 L 2.8 11.8 A 2 2 0 0 1 0.0 10.0 L 0.0 2.0 A 2 2 0 0 1 2.8 0.2 L 11.8 4.2 A 2 2 0 0 1 11.8 7.8 Z" fill="white" stroke="none"/></marker></defs><g id="grid-axes"><g id="grid" stroke="#ccc" stroke-width="1"><line id="line-0" x1="14.8" y1="155.0" x2="14.8" y2="5.0"/><line id="line-1" x1="27.8" y1="155.0" x2="27.8" y2="5.0"/><line id="line-2" x1="40.9" y1="155.0" x2="40.9" y2="5.0"/><line id="line-3" x1="53.9" y1="155.0" x2="53.9" y2="5.0"/><line id="line-4" x1="67.0" y1="155.0" x2="67.0" y2="5.0"/><line id="line-5" x1="80.0" y1="155.0" x2="80.0" y2="5.0"/><line id="line-6" x1="93.0" y1="155.0" x2="93.0" y2="5.0"/><line id="line-7" x1="106.1" y1="155.0" x2="106.1" y2="5.0"/><line id="line-8" x1="119.1" y1="155.0" x2="119.1" y2="5.0"/><line id="line-9" x1="132.2" y1="155.0" x2="132.2" y2="5.0"/><line id="line-10" x1="145.2" y1="155.0" x2="145.2" y2="5.0"/><line id="line-11" x1="5.0" y1="145.2" x2="155.0" y2="145.2"/><line id="line-12" x1="5.0" y1="132.2" x2="155.0" y2="132.2"/><line id="line-13" x1="5.0" y1="119.1" x2="155.0" y2="119.1"/><line id="line-14" x1="5.0" y1="106.1" x2="155.0" y2="106.1"/><line id="line-15" x1="5.0" y1="93.0" x2="155.0" y2="93.0"/><line id="line-16" x1="5.0" y1="80.0" x2="155.0" y2="80.0"/><line id="line-17" x1="5.0" y1="67.0" x2="155.0" y2="67.0"/><line id="line-18" x1="5.0" y1="53.9" x2="155.0" y2="53.9"/><line id="line-19" x1="5.0" y1="40.9" x2="155.0" y2="40.9"/><line id="line-20" x1="5.0" y1="27.8" x2="155.0" y2="27.8"/><line id="line-21" x1="5.0" y1="14.8" x2="155.0" y2="14.8"/></g><g id="axes" stroke="black" stroke-width="2"><line id="line-22" x1="5.0" y1="80.0" x2="155.0" y2="80.0" stroke="black" stroke-width="2" marker-end="url(#arrow-head-end-2_None_24_60-black)" marker-start="url(#arrow-head-end-2_None_24_60-black)"/><line id="line-23" x1="53.9" y1="155.0" x2="53.9" y2="5.0" stroke="black" stroke-width="2" marker-end="url(#arrow-head-end-2_None_24_60-black)" marker-start="url(#arrow-head-end-2_None_24_60-black)"/></g></g><line id="line-24" x1="8.3" y1="119.1" x2="151.7" y2="119.1" stroke="orange" stroke-width="2" stroke-dasharray="9 9" fill="none" marker-end="url(#arrow-head-end-2_None_24_60-orange)" marker-start="url(#arrow-head-end-2_None_24_60-orange)"/><path id="graph-0" stroke="blue" stroke-width="2" fill="none" d="M 14.8 119.1 L 15.8 119.1 L 16.9 119.1 L 17.9 119.1 L 19.0 119.1 L 20.0 119.1 L 21.0 119.1 L 22.1 119.1 L 23.1 119.0 L 24.2 119.0 L 25.2 119.0 L 26.3 119.0 L 27.3 119.0 L 28.3 119.0 L 29.4 119.0 L 30.4 119.0 L 31.5 119.0 L 32.5 119.0 L 33.6 118.9 L 34.6 118.9 L 35.7 118.9 L 36.7 118.9 L 37.7 118.9 L 38.8 118.9 L 39.8 118.8 L 40.9 118.8 L 41.9 118.8 L 43.0 118.7 L 44.0 118.7 L 45.0 118.7 L 46.1 118.6 L 47.1 118.6 L 48.2 118.6 L 49.2 118.5 L 50.3 118.5 L 51.3 118.4 L 52.3 118.3 L 53.4 118.3 L 54.4 118.2 L 55.5 118.1 L 56.5 118.1 L 57.6 118.0 L 58.6 117.9 L 59.7 117.8 L 60.7 117.6 L 61.7 117.5 L 62.8 117.4 L 63.8 117.2 L 64.9 117.1 L 65.9 116.9 L 67.0 116.7 L 68.0 116.5 L 69.0 116.3 L 70.1 116.1 L 71.1 115.8 L 72.2 115.6 L 73.2 115.3 L 74.3 114.9 L 75.3 114.6 L 76.3 114.2 L 77.4 113.8 L 78.4 113.3 L 79.5 112.9 L 80.5 112.3 L 81.6 111.8 L 82.6 111.2 L 83.7 110.5 L 84.7 109.8 L 85.7 109.0 L 86.8 108.2 L 87.8 107.2 L 88.9 106.3 L 89.9 105.2 L 91.0 104.0 L 92.0 102.8 L 93.0 101.4 L 94.1 99.9 L 95.1 98.3 L 96.2 96.6 L 97.2 94.7 L 98.3 92.7 L 99.3 90.5 L 100.3 88.1 L 101.4 85.5 L 102.4 82.7 L 103.5 79.7 L 104.5 76.4 L 105.6 72.8 L 106.6 69.0 L 107.7 64.8 L 108.7 60.3 L 109.7 55.4 L 110.8 50.1 L 111.8 44.3 L 112.9 38.1 L 113.9 31.3 L 115.0 24.0 L 116.0 16.1 L 117.0 7.5 L 118.1 -1.8 L 119.1 -11.9" marker-end="url(#arrow-head-end-2_None_24_60-blue)" marker-start="url(#arrow-head-end-2_None_24_60-blue)" clip-path="url(#clipPath-1)"/><line id="line-25" x1="116.1" y1="14.8" x2="117.2" y2="5.7" stroke="blue" stroke-width="2" stroke-dasharray="9 9" fill="none" marker-end="url(#arrow-head-end-2_None_24_60-blue)"/></svg>