<svg xmlns="http://www.w3.org/2000/svg" id="diagram" width="160" height="160"><defs><clipPath id="clipPath-0"><rect x="5.0" y="5.0" width="150.0" height="150.0"/></clipPath><clipPath id="clipPath-1"><rect x="5.0" y="5.0" width="150.0" height="150.0"/></clipPath><marker id="arrow-head-end-2_None_24_60-black" markerWidth="9.0" markerHeight="8.0" markerUnits="userSpaceOnUse" orient="auto-start-reverse" refX="6.5" refY="4.0"><path d="M 9.0 4.0L 0.0 8.0L 1.7 5.0L 1.7 3.0L 0.0 0.0Z" fill="black" stroke="none"/></marker><marker id="arrow-head-end-2_None_24_60-black-outline" markerWidth="13.0" markerHeight="12.0" markerUnits="userSpaceOnUse" orient="auto-start-reverse" refX="8.5" refY="6.0"><path d="M 11.8 7.8 L 2.8 11.8 A 2 2 0 0 1 0.0 10.0 L 0.0 2.0 A 2 2 0 0 1 2.8 0.2 L 11.8 4.2 A 2 2 0 0 1 11.8 7.8 Z" fill="white" stroke="none"/></marker><marker id="arrow-head-end-2_None_24_60-orange" markerWidth="9.0" markerHeight="8.0" markerUnits="userSpaceOnUse" orient="auto-start-reverse" refX="6.5" refY="4.0"><path d="M 9.0 4.0L 0.0 8.0L 1.7 5.0L 1.7 3.0L 0.0 0.0Z" fill="orange" stroke="none"/></marker><marker id="arrow-head-end-2_None_24_60-orange-outline" markerWidth="13.0" markerHeight="12.0" markerUnits="userSpaceOnUse" orient="auto-start-reverse" refX="8.5" refY="6.0"><path d="M 11.8 7.8 L 2.8 11.8 A 2 2 0 0 1 0.0 10.0 L 0.0 2.0 A 2 2 0 0 1 2.8 0.2 L 11.8 4.2 A 2 2 0 0 1 11.8 7.8 Z" fill="white" stroke="none"/></marker><marker id="arrow-head-end-2_None_24_60-blue" markerWidth="9.0" markerHeight="8.0" markerUnits="userSpaceOnUse" orient="auto-start-reverse" refX="6.5" refY="4.0"><path d="M 9.0 4.0L 0.0 8.0L 1.7 5.0L 1.7 3.0L 0.0 0.0Z" fill="blue" stroke="none"/></marker><marker id="arrow-head-end-2_None_24_60-blue-outline" markerWidth="13.0" markerHeight="12.0" markerUnits="userSpaceOnUse" orient="auto-start-reverse" refX="8.5" refY="6.0"><path d="M 11.8 7.8 L 2.8 11.8 A 2 2 0 0 1 0.0 10.0 L 0.0 2.0 A 2 2 0 0 1 2.8 0.2 L 11.8 4.2 A 2 2 0 0 1 11.8 7.8 Z" fill="white" stroke="none"/></marker></defs><g id="grid-axes"><g id="grid" stroke="#ccc" stroke-width="1"><line id="line-0" x1="14.8" y1="155.0" x2="14.8" y2="5.0"/><line id="line-1" x1="27.8" y1="155.0" x2="27.8" y2="5.0"/><line id="line-2" x1="40.9" y1="155.0" x2="40.9" y2="5.0"/><line id="line-3" x1="53.9" y1="155.0" x2="53.9" y2="5.0"/><line id="line-4" x1="67.0" y1="155.0" x2="67.0" y2="5.0"/><line id="line-5" x1="80.0" y1="155.0" x2="80.0" y2="5.0"/><line id="line-6" x1="93.0" y1="155.0" x2="93.0" y2="5.0"/><line id="line-7" x1="106.1" y1="155.0" x2="106.1" y2="5.0"/><line id="line-8" x1="119.1" y1="155.0" x2="119.1" y2="5.0"/><line id="line-9" x1="132.2" y1="155.0" x2="132.2" y2="5.0"/><line id="line-10" x1="145.2" y1="155.0" x2="145.2" y2="5.0"/><line id="line-11" x1="5.0" y1="145.2" x2="155.0" y2="145.2"/><line id="line-12" x1="5.0" y1="132.2" x2="155.0" y2="132.2"/><line id="line-13" x1="5.0" y1="119.1" x2="155.0" y2="119.1"/><line id="line-14" x1="5.0" y1="106.1" x2="155.0" y2="106.1"/><line id="line-15" x1="5.0" y1="93.0" x2="155.0" y2="93.0"/><line id="line-16" x1="5.0" y1="80.0" x2="155.0" y2="80.0"/><line id="line-17" x1="5.0" y1="67.0" x2="155.0" y2="67.0"/><line id="line-18" x1="5.0" y1="53.9" x2="155.0" y2="53.9"/><line id="line-19" x1="5.0" y1="40.9" x2="155.0" y2="40.9"/><line id="line-20" x1="5.0" y1="27.8" x2="155.0" y2="27.8"/><line id="line-21" x1="5.0" y1="14.8" x2="155.0" y2="14.8"/></g><g id="axes" stroke="black" stroke-width="2"><line id="line-22" x1="5.0" y1="80.0" x2="155.0" y2="80.0" stroke="black" stroke-width="2" marker-end="url(#arrow-head-end-2_None_24_60-black)" marker-start="url(#arrow-head-end-2_None_24_60-black)"/><line id="line-23" x1="80.0" y1="155.0" x2="80.0" y2="5.0" stroke="black" stroke-width="2" marker-end="url(#arrow-head-end-2_None_24_60-black)" marker-start="url(#arrow-head-end-2_None_24_60-black)"/></g></g><line id="line-24" x1="40.9" y1="8.3" x2="40.9" y2="151.7" stroke="orange" stroke-width="2" stroke-dasharray="9 9" fill="none" marker-end="url(#arrow-head-end-2_None_24_60-orange)" marker-start="url(#arrow-head-end-2_None_24_60-orange)"/><path id="graph-0" stroke="blue" stroke-width="2" fill="none" d="M 40.9 -40.2 L 42.0 48.6 L 43.5 59.1 L 45.0 64.9 L 46.4 68.9 L 47.9 71.9 L 49.3 74.4 L 50.8 76.4 L 52.3 78.2 L 53.7 79.8 L 55.2 81.2 L 56.6 82.5 L 58.1 83.6 L 59.6 84.7 L 61.0 85.7 L 62.5 86.6 L 63.9 87.4 L 65.4 88.2 L 66.9 89.0 L 68.3 89.7 L 69.8 90.4 L 71.2 91.0 L 72.7 91.6 L 74.2 92.2 L 75.6 92.8 L 77.1 93.3 L 78.5 93.8 L 80.0 94.3 L 81.5 94.8 L 82.9 95.3 L 84.4 95.7 L 85.8 96.1 L 87.3 96.6 L 88.8 97.0 L 90.2 97.4 L 91.7 97.7 L 93.1 98.1 L 94.6 98.5 L 96.1 98.8 L 97.5 99.2 L 99.0 99.5 L 100.4 99.8 L 101.9 100.1 L 103.4 100.4 L 104.8 100.7 L 106.3 101.0 L 107.7 101.3 L 109.2 101.6 L 110.7 101.9 L 112.1 102.1 L 113.6 102.4 L 115.0 102.7 L 116.5 102.9 L 118.0 103.2 L 119.4 103.4 L 120.9 103.7 L 122.3 103.9 L 123.8 104.1 L 125.3 104.4 L 126.7 104.6 L 128.2 104.8 L 129.6 105.0 L 131.1 105.2 L 132.6 105.4 L 134.0 105.6 L 135.5 105.8 L 136.9 106.0 L 138.4 106.2 L 139.9 106.4 L 141.3 106.6 L 142.8 106.8 L 144.2 107.0 L 145.7 107.2 L 147.2 107.4 L 148.6 107.5 L 150.1 107.7 L 151.5 107.9 L 153.0 108.1" marker-end="url(#arrow-head-end-2_None_24_60-blue)" marker-start="url(#arrow-head-end-2_None_24_60-blue)" clip-path="url(#clipPath-1)"/><line id="line-25" x1="41.5" y1="14.8" x2="41.5" y2="5.0" stroke="blue" stroke-width="2" stroke-dasharray="9 9" fill="none" marker-end="url(#arrow-head-end-2_None_24_60-blue)"/></svg>