<svg xmlns="http://www.w3.org/2000/svg" id="diagram" width="160" height="160"><defs><clipPath id="clipPath-0"><rect x="5.0" y="5.0" width="150.0" height="150.0"/></clipPath><clipPath id="clipPath-1"><rect x="5.0" y="5.0" width="150.0" height="150.0"/></clipPath><marker id="arrow-head-end-2_None_24_60-black" markerWidth="9.0" markerHeight="8.0" markerUnits="userSpaceOnUse" orient="auto-start-reverse" refX="6.5" refY="4.0"><path d="M 9.0 4.0L 0.0 8.0L 1.7 5.0L 1.7 3.0L 0.0 0.0Z" fill="black" stroke="none"/></marker><marker id="arrow-head-end-2_None_24_60-black-outline" markerWidth="13.0" markerHeight="12.0" markerUnits="userSpaceOnUse" orient="auto-start-reverse" refX="8.5" refY="6.0"><path d="M 11.8 7.8 L 2.8 11.8 A 2 2 0 0 1 0.0 10.0 L 0.0 2.0 A 2 2 0 0 1 2.8 0.2 L 11.8 4.2 A 2 2 0 0 1 11.8 7.8 Z" fill="white" stroke="none"/></marker><marker id="arrow-head-end-2_None_24_60-blue" markerWidth="9.0" markerHeight="8.0" markerUnits="userSpaceOnUse" orient="auto-start-reverse" refX="6.5" refY="4.0"><path d="M 9.0 4.0L 0.0 8.0L 1.7 5.0L 1.7 3.0L 0.0 0.0Z" fill="blue" stroke="none"/></marker><marker id="arrow-head-end-2_None_24_60-blue-outline" markerWidth="13.0" markerHeight="12.0" markerUnits="userSpaceOnUse" orient="auto-start-reverse" refX="8.5" refY="6.0"><path d="M 11.8 7.8 L 2.8 11.8 A 2 2 0 0 1 0.0 10.0 L 0.0 2.0 A 2 2 0 0 1 2.8 0.2 L 11.8 4.2 A 2 2 0 0 1 11.8 7.8 Z" fill="white" stroke="none"/></marker></defs><g id="grid-axes"><g id="grid" stroke="#ccc" stroke-width="1"><line id="line-0" x1="14.8" y1="155.0" x2="14.8" y2="5.0"/><line id="line-1" x1="27.8" y1="155.0" x2="27.8" y2="5.0"/><line id="line-2" x1="40.9" y1="155.0" x2="40.9" y2="5.0"/><line id="line-3" x1="53.9" y1="155.0" x2="53.9" y2="5.0"/><line id="line-4" x1="67.0" y1="155.0" x2="67.0" y2="5.0"/><line id="line-5" x1="80.0" y1="155.0" x2="80.0" y2="5.0"/><line id="line-6" x1="93.0" y1="155.0" x2="93.0" y2="5.0"/><line id="line-7" x1="106.1" y1="155.0" x2="106.1" y2="5.0"/><line id="line-8" x1="119.1" y1="155.0" x2="119.1" y2="5.0"/><line id="line-9" x1="132.2" y1="155.0" x2="132.2" y2="5.0"/><line id="line-10" x1="145.2" y1="155.0" x2="145.2" y2="5.0"/><line id="line-11" x1="5.0" y1="145.2" x2="155.0" y2="145.2"/><line id="line-12" x1="5.0" y1="132.2" x2="155.0" y2="132.2"/><line id="line-13" x1="5.0" y1="119.1" x2="155.0" y2="119.1"/><line id="line-14" x1="5.0" y1="106.1" x2="155.0" y2="106.1"/><line id="line-15" x1="5.0" y1="93.0" x2="155.0" y2="93.0"/><line id="line-16" x1="5.0" y1="80.0" x2="155.0" y2="80.0"/><line id="line-17" x1="5.0" y1="67.0" x2="155.0" y2="67.0"/><line id="line-18" x1="5.0" y1="53.9" x2="155.0" y2="53.9"/><line id="line-19" x1="5.0" y1="40.9" x2="155.0" y2="40.9"/><line id="line-20" x1="5.0" y1="27.8" x2="155.0" y2="27.8"/><line id="line-21" x1="5.0" y1="14.8" x2="155.0" y2="14.8"/></g><g id="axes" stroke="black" stroke-width="2"><line id="line-22" x1="5.0" y1="80.0" x2="155.0" y2="80.0" stroke="black" stroke-width="2" marker-end="url(#arrow-head-end-2_None_24_60-black)" marker-start="url(#arrow-head-end-2_None_24_60-black)"/><line id="line-23" x1="53.9" y1="155.0" x2="53.9" y2="5.0" stroke="black" stroke-width="2" marker-end="url(#arrow-head-end-2_None_24_60-black)" marker-start="url(#arrow-head-end-2_None_24_60-black)"/></g></g><path id="graph-0" stroke="blue" stroke-width="2" fill="none" d="M 40.9 14.8 L 41.7 19.4 L 42.4 24.0 L 43.2 28.4 L 44.0 32.8 L 44.8 37.1 L 45.6 41.3 L 46.3 45.4 L 47.1 49.3 L 47.9 53.2 L 48.7 57.0 L 49.5 60.8 L 50.3 64.4 L 51.0 67.9 L 51.8 71.3 L 52.6 74.7 L 53.4 77.9 L 54.2 81.0 L 55.0 84.1 L 55.7 87.0 L 56.5 89.9 L 57.3 92.7 L 58.1 95.4 L 58.9 97.9 L 59.7 100.4 L 60.4 102.8 L 61.2 105.1 L 62.0 107.3 L 62.8 109.4 L 63.6 111.5 L 64.3 113.4 L 65.1 115.2 L 65.9 117.0 L 66.7 118.6 L 67.5 120.2 L 68.3 121.6 L 69.0 123.0 L 69.8 124.2 L 70.6 125.4 L 71.4 126.5 L 72.2 127.5 L 73.0 128.4 L 73.7 129.2 L 74.5 129.9 L 75.3 130.5 L 76.1 131.0 L 76.9 131.4 L 77.7 131.8 L 78.4 132.0 L 79.2 132.1 L 80.0 132.2 L 80.8 132.1 L 81.6 132.0 L 82.3 131.8 L 83.1 131.4 L 83.9 131.0 L 84.7 130.5 L 85.5 129.9 L 86.3 129.2 L 87.0 128.4 L 87.8 127.5 L 88.6 126.5 L 89.4 125.4 L 90.2 124.2 L 91.0 123.0 L 91.7 121.6 L 92.5 120.2 L 93.3 118.6 L 94.1 117.0 L 94.9 115.2 L 95.7 113.4 L 96.4 111.5 L 97.2 109.4 L 98.0 107.3 L 98.8 105.1 L 99.6 102.8 L 100.3 100.4 L 101.1 97.9 L 101.9 95.4 L 102.7 92.7 L 103.5 89.9 L 104.3 87.0 L 105.0 84.1 L 105.8 81.0 L 106.6 77.9 L 107.4 74.7 L 108.2 71.3 L 109.0 67.9 L 109.7 64.4 L 110.5 60.8 L 111.3 57.0 L 112.1 53.2 L 112.9 49.3 L 113.7 45.4 L 114.4 41.3 L 115.2 37.1 L 116.0 32.8 L 116.8 28.4 L 117.6 24.0 L 118.3 19.4 L 119.1 14.8" marker-end="url(#arrow-head-end-2_None_24_60-blue)" marker-start="url(#arrow-head-end-2_None_24_60-blue)" clip-path="url(#clipPath-1)"/></svg>