<svg xmlns="http://www.w3.org/2000/svg" id="diagram" width="160" height="160"><defs><clipPath id="clipPath-0"><rect x="5.0" y="5.0" width="150.0" height="150.0"/></clipPath><clipPath id="clipPath-1"><rect x="5.0" y="5.0" width="150.0" height="150.0"/></clipPath><marker id="arrow-head-end-2_None_24_60-black" markerWidth="9.0" markerHeight="8.0" markerUnits="userSpaceOnUse" orient="auto-start-reverse" refX="6.5" refY="4.0"><path d="M 9.0 4.0L 0.0 8.0L 1.7 5.0L 1.7 3.0L 0.0 0.0Z" fill="black" stroke="none"/></marker><marker id="arrow-head-end-2_None_24_60-black-outline" markerWidth="13.0" markerHeight="12.0" markerUnits="userSpaceOnUse" orient="auto-start-reverse" refX="8.5" refY="6.0"><path d="M 11.8 7.8 L 2.8 11.8 A 2 2 0 0 1 0.0 10.0 L 0.0 2.0 A 2 2 0 0 1 2.8 0.2 L 11.8 4.2 A 2 2 0 0 1 11.8 7.8 Z" fill="white" stroke="none"/></marker><marker id="arrow-head-end-2_None_24_60-blue" markerWidth="9.0" markerHeight="8.0" markerUnits="userSpaceOnUse" orient="auto-start-reverse" refX="6.5" refY="4.0"><path d="M 9.0 4.0L 0.0 8.0L 1.7 5.0L 1.7 3.0L 0.0 0.0Z" fill="blue" stroke="none"/></marker><marker id="arrow-head-end-2_None_24_60-blue-outline" markerWidth="13.0" markerHeight="12.0" markerUnits="userSpaceOnUse" orient="auto-start-reverse" refX="8.5" refY="6.0"><path d="M 11.8 7.8 L 2.8 11.8 A 2 2 0 0 1 0.0 10.0 L 0.0 2.0 A 2 2 0 0 1 2.8 0.2 L 11.8 4.2 A 2 2 0 0 1 11.8 7.8 Z" fill="white" stroke="none"/></marker></defs><g id="grid-axes"><g id="grid" stroke="#ccc" stroke-width="1"><line id="line-0" x1="14.8" y1="155.0" x2="14.8" y2="5.0"/><line id="line-1" x1="27.8" y1="155.0" x2="27.8" y2="5.0"/><line id="line-2" x1="40.9" y1="155.0" x2="40.9" y2="5.0"/><line id="line-3" x1="53.9" y1="155.0" x2="53.9" y2="5.0"/><line id="line-4" x1="67.0" y1="155.0" x2="67.0" y2="5.0"/><line id="line-5" x1="80.0" y1="155.0" x2="80.0" y2="5.0"/><line id="line-6" x1="93.0" y1="155.0" x2="93.0" y2="5.0"/><line id="line-7" x1="106.1" y1="155.0" x2="106.1" y2="5.0"/><line id="line-8" x1="119.1" y1="155.0" x2="119.1" y2="5.0"/><line id="line-9" x1="132.2" y1="155.0" x2="132.2" y2="5.0"/><line id="line-10" x1="145.2" y1="155.0" x2="145.2" y2="5.0"/><line id="line-11" x1="5.0" y1="145.2" x2="155.0" y2="145.2"/><line id="line-12" x1="5.0" y1="132.2" x2="155.0" y2="132.2"/><line id="line-13" x1="5.0" y1="119.1" x2="155.0" y2="119.1"/><line id="line-14" x1="5.0" y1="106.1" x2="155.0" y2="106.1"/><line id="line-15" x1="5.0" y1="93.0" x2="155.0" y2="93.0"/><line id="line-16" x1="5.0" y1="80.0" x2="155.0" y2="80.0"/><line id="line-17" x1="5.0" y1="67.0" x2="155.0" y2="67.0"/><line id="line-18" x1="5.0" y1="53.9" x2="155.0" y2="53.9"/><line id="line-19" x1="5.0" y1="40.9" x2="155.0" y2="40.9"/><line id="line-20" x1="5.0" y1="27.8" x2="155.0" y2="27.8"/><line id="line-21" x1="5.0" y1="14.8" x2="155.0" y2="14.8"/></g><g id="axes" stroke="black" stroke-width="2"><line id="line-22" x1="5.0" y1="80.0" x2="155.0" y2="80.0" stroke="black" stroke-width="2" marker-end="url(#arrow-head-end-2_None_24_60-black)" marker-start="url(#arrow-head-end-2_None_24_60-black)"/><line id="line-23" x1="106.1" y1="155.0" x2="106.1" y2="5.0" stroke="black" stroke-width="2" marker-end="url(#arrow-head-end-2_None_24_60-black)" marker-start="url(#arrow-head-end-2_None_24_60-black)"/></g></g><path id="graph-0" stroke="blue" stroke-width="2" fill="none" d="M 27.8 151.7 L 28.9 147.6 L 29.9 143.6 L 31.0 139.6 L 32.0 135.7 L 33.0 131.9 L 34.1 128.2 L 35.1 124.6 L 36.2 121.0 L 37.2 117.6 L 38.3 114.2 L 39.3 110.9 L 40.3 107.7 L 41.4 104.5 L 42.4 101.5 L 43.5 98.5 L 44.5 95.6 L 45.6 92.8 L 46.6 90.1 L 47.7 87.5 L 48.7 85.0 L 49.7 82.5 L 50.8 80.1 L 51.8 77.8 L 52.9 75.6 L 53.9 73.5 L 55.0 71.4 L 56.0 69.5 L 57.0 67.6 L 58.1 65.8 L 59.1 64.1 L 60.2 62.5 L 61.2 60.9 L 62.3 59.5 L 63.3 58.1 L 64.3 56.8 L 65.4 55.6 L 66.4 54.4 L 67.5 53.4 L 68.5 52.4 L 69.6 51.6 L 70.6 50.8 L 71.7 50.1 L 72.7 49.4 L 73.7 48.9 L 74.8 48.4 L 75.8 48.1 L 76.9 47.8 L 77.9 47.6 L 79.0 47.4 L 80.0 47.4 L 81.0 47.4 L 82.1 47.6 L 83.1 47.8 L 84.2 48.1 L 85.2 48.4 L 86.3 48.9 L 87.3 49.4 L 88.3 50.1 L 89.4 50.8 L 90.4 51.6 L 91.5 52.4 L 92.5 53.4 L 93.6 54.4 L 94.6 55.6 L 95.7 56.8 L 96.7 58.1 L 97.7 59.5 L 98.8 60.9 L 99.8 62.5 L 100.9 64.1 L 101.9 65.8 L 103.0 67.6 L 104.0 69.5 L 105.0 71.4 L 106.1 73.5 L 107.1 75.6 L 108.2 77.8 L 109.2 80.1 L 110.3 82.5 L 111.3 85.0 L 112.3 87.5 L 113.4 90.1 L 114.4 92.8 L 115.5 95.6 L 116.5 98.5 L 117.6 101.5 L 118.6 104.5 L 119.7 107.7 L 120.7 110.9 L 121.7 114.2 L 122.8 117.6 L 123.8 121.0 L 124.9 124.6 L 125.9 128.2 L 127.0 131.9 L 128.0 135.7 L 129.0 139.6 L 130.1 143.6 L 131.1 147.6 L 132.2 151.7" marker-end="url(#arrow-head-end-2_None_24_60-blue)" marker-start="url(#arrow-head-end-2_None_24_60-blue)" clip-path="url(#clipPath-1)"/></svg>
