<svg xmlns="http://www.w3.org/2000/svg" id="diagram" width="160" height="160"><defs><clipPath id="clipPath-0"><rect x="5.0" y="5.0" width="150.0" height="150.0"/></clipPath><clipPath id="clipPath-1"><rect x="5.0" y="5.0" width="150.0" height="150.0"/></clipPath><marker id="arrow-head-end-2_None_24_60-black" markerWidth="9.0" markerHeight="8.0" markerUnits="userSpaceOnUse" orient="auto-start-reverse" refX="6.5" refY="4.0"><path d="M 9.0 4.0L 0.0 8.0L 1.7 5.0L 1.7 3.0L 0.0 0.0Z" fill="black" stroke="none"/></marker><marker id="arrow-head-end-2_None_24_60-black-outline" markerWidth="13.0" markerHeight="12.0" markerUnits="userSpaceOnUse" orient="auto-start-reverse" refX="8.5" refY="6.0"><path d="M 11.8 7.8 L 2.8 11.8 A 2 2 0 0 1 0.0 10.0 L 0.0 2.0 A 2 2 0 0 1 2.8 0.2 L 11.8 4.2 A 2 2 0 0 1 11.8 7.8 Z" fill="white" stroke="none"/></marker><marker id="arrow-head-end-2_None_24_60-blue" markerWidth="9.0" markerHeight="8.0" markerUnits="userSpaceOnUse" orient="auto-start-reverse" refX="6.5" refY="4.0"><path d="M 9.0 4.0L 0.0 8.0L 1.7 5.0L 1.7 3.0L 0.0 0.0Z" fill="blue" stroke="none"/></marker><marker id="arrow-head-end-2_None_24_60-blue-outline" markerWidth="13.0" markerHeight="12.0" markerUnits="userSpaceOnUse" orient="auto-start-reverse" refX="8.5" refY="6.0"><path d="M 11.8 7.8 L 2.8 11.8 A 2 2 0 0 1 0.0 10.0 L 0.0 2.0 A 2 2 0 0 1 2.8 0.2 L 11.8 4.2 A 2 2 0 0 1 11.8 7.8 Z" fill="white" stroke="none"/></marker></defs><g id="grid-axes"><g id="grid" stroke="#ccc" stroke-width="1"><line id="line-0" x1="14.8" y1="155.0" x2="14.8" y2="5.0"/><line id="line-1" x1="27.8" y1="155.0" x2="27.8" y2="5.0"/><line id="line-2" x1="40.9" y1="155.0" x2="40.9" y2="5.0"/><line id="line-3" x1="53.9" y1="155.0" x2="53.9" y2="5.0"/><line id="line-4" x1="67.0" y1="155.0" x2="67.0" y2="5.0"/><line id="line-5" x1="80.0" y1="155.0" x2="80.0" y2="5.0"/><line id="line-6" x1="93.0" y1="155.0" x2="93.0" y2="5.0"/><line id="line-7" x1="106.1" y1="155.0" x2="106.1" y2="5.0"/><line id="line-8" x1="119.1" y1="155.0" x2="119.1" y2="5.0"/><line id="line-9" x1="132.2" y1="155.0" x2="132.2" y2="5.0"/><line id="line-10" x1="145.2" y1="155.0" x2="145.2" y2="5.0"/><line id="line-11" x1="5.0" y1="145.2" x2="155.0" y2="145.2"/><line id="line-12" x1="5.0" y1="132.2" x2="155.0" y2="132.2"/><line id="line-13" x1="5.0" y1="119.1" x2="155.0" y2="119.1"/><line id="line-14" x1="5.0" y1="106.1" x2="155.0" y2="106.1"/><line id="line-15" x1="5.0" y1="93.0" x2="155.0" y2="93.0"/><line id="line-16" x1="5.0" y1="80.0" x2="155.0" y2="80.0"/><line id="line-17" x1="5.0" y1="67.0" x2="155.0" y2="67.0"/><line id="line-18" x1="5.0" y1="53.9" x2="155.0" y2="53.9"/><line id="line-19" x1="5.0" y1="40.9" x2="155.0" y2="40.9"/><line id="line-20" x1="5.0" y1="27.8" x2="155.0" y2="27.8"/><line id="line-21" x1="5.0" y1="14.8" x2="155.0" y2="14.8"/></g><g id="axes" stroke="black" stroke-width="2"><line id="line-22" x1="5.0" y1="80.0" x2="155.0" y2="80.0" stroke="black" stroke-width="2" marker-end="url(#arrow-head-end-2_None_24_60-black)" marker-start="url(#arrow-head-end-2_None_24_60-black)"/><line id="line-23" x1="53.9" y1="155.0" x2="53.9" y2="5.0" stroke="black" stroke-width="2" marker-end="url(#arrow-head-end-2_None_24_60-black)" marker-start="url(#arrow-head-end-2_None_24_60-black)"/></g></g><path id="graph-0" stroke="blue" stroke-width="2" fill="none" d="M 72.2 139.5 L 72.7 130.8 L 73.2 122.8 L 73.7 115.4 L 74.2 108.7 L 74.7 102.6 L 75.2 97.1 L 75.7 92.0 L 76.2 87.5 L 76.7 83.5 L 77.3 79.9 L 77.8 76.7 L 78.3 73.9 L 78.8 71.4 L 79.3 69.3 L 79.8 67.6 L 80.3 66.1 L 80.8 64.8 L 81.3 63.8 L 81.9 63.1 L 82.4 62.5 L 82.9 62.1 L 83.4 61.9 L 83.9 61.8 L 84.4 61.8 L 84.9 61.9 L 85.4 62.2 L 85.9 62.5 L 86.4 62.8 L 87.0 63.2 L 87.5 63.6 L 88.0 64.1 L 88.5 64.5 L 89.0 65.0 L 89.5 65.4 L 90.0 65.8 L 90.5 66.1 L 91.0 66.4 L 91.5 66.6 L 92.1 66.8 L 92.6 66.9 L 93.1 67.0 L 93.6 66.9 L 94.1 66.8 L 94.6 66.6 L 95.1 66.2 L 95.6 65.8 L 96.1 65.4 L 96.7 64.8 L 97.2 64.1 L 97.7 63.3 L 98.2 62.4 L 98.7 61.5 L 99.2 60.4 L 99.7 59.3 L 100.2 58.1 L 100.7 56.8 L 101.2 55.4 L 101.8 54.0 L 102.3 52.6 L 102.8 51.1 L 103.3 49.5 L 103.8 47.9 L 104.3 46.3 L 104.8 44.8 L 105.3 43.2 L 105.8 41.6 L 106.4 40.1 L 106.9 38.6 L 107.4 37.2 L 107.9 35.8 L 108.4 34.6 L 108.9 33.5 L 109.4 32.4 L 109.9 31.6 L 110.4 30.9 L 110.9 30.4 L 111.5 30.1 L 112.0 30.0 L 112.5 30.2 L 113.0 30.6 L 113.5 31.4 L 114.0 32.5 L 114.5 33.9 L 115.0 35.7 L 115.5 37.9 L 116.0 40.5 L 116.6 43.5 L 117.1 47.1 L 117.6 51.2 L 118.1 55.8 L 118.6 60.9 L 119.1 66.7 L 119.6 73.2 L 120.1 80.3 L 120.6 88.1 L 121.2 96.6 L 121.7 105.9 L 122.2 116.1 L 122.7 127.0 L 123.2 138.9" marker-end="url(#arrow-head-end-2_None_24_60-blue)" marker-start="url(#arrow-head-end-2_None_24_60-blue)" clip-path="url(#clipPath-1)"/></svg>