<svg xmlns="http://www.w3.org/2000/svg" id="diagram" width="160" height="160"><defs><clipPath id="clipPath-0"><rect x="5.0" y="5.0" width="150.0" height="150.0"/></clipPath><clipPath id="clipPath-1"><rect x="5.0" y="5.0" width="150.0" height="150.0"/></clipPath><marker id="arrow-head-end-2_None_24_60-black" markerWidth="9.0" markerHeight="8.0" markerUnits="userSpaceOnUse" orient="auto-start-reverse" refX="6.5" refY="4.0"><path d="M 9.0 4.0L 0.0 8.0L 1.7 5.0L 1.7 3.0L 0.0 0.0Z" fill="black" stroke="none"/></marker><marker id="arrow-head-end-2_None_24_60-black-outline" markerWidth="13.0" markerHeight="12.0" markerUnits="userSpaceOnUse" orient="auto-start-reverse" refX="8.5" refY="6.0"><path d="M 11.8 7.8 L 2.8 11.8 A 2 2 0 0 1 0.0 10.0 L 0.0 2.0 A 2 2 0 0 1 2.8 0.2 L 11.8 4.2 A 2 2 0 0 1 11.8 7.8 Z" fill="white" stroke="none"/></marker><marker id="arrow-head-end-2_None_24_60-orange" markerWidth="9.0" markerHeight="8.0" markerUnits="userSpaceOnUse" orient="auto-start-reverse" refX="6.5" refY="4.0"><path d="M 9.0 4.0L 0.0 8.0L 1.7 5.0L 1.7 3.0L 0.0 0.0Z" fill="orange" stroke="none"/></marker><marker id="arrow-head-end-2_None_24_60-orange-outline" markerWidth="13.0" markerHeight="12.0" markerUnits="userSpaceOnUse" orient="auto-start-reverse" refX="8.5" refY="6.0"><path d="M 11.8 7.8 L 2.8 11.8 A 2 2 0 0 1 0.0 10.0 L 0.0 2.0 A 2 2 0 0 1 2.8 0.2 L 11.8 4.2 A 2 2 0 0 1 11.8 7.8 Z" fill="white" stroke="none"/></marker><marker id="arrow-head-end-2_None_24_60-blue" markerWidth="9.0" markerHeight="8.0" markerUnits="userSpaceOnUse" orient="auto-start-reverse" refX="6.5" refY="4.0"><path d="M 9.0 4.0L 0.0 8.0L 1.7 5.0L 1.7 3.0L 0.0 0.0Z" fill="blue" stroke="none"/></marker><marker id="arrow-head-end-2_None_24_60-blue-outline" markerWidth="13.0" markerHeight="12.0" markerUnits="userSpaceOnUse" orient="auto-start-reverse" refX="8.5" refY="6.0"><path d="M 11.8 7.8 L 2.8 11.8 A 2 2 0 0 1 0.0 10.0 L 0.0 2.0 A 2 2 0 0 1 2.8 0.2 L 11.8 4.2 A 2 2 0 0 1 11.8 7.8 Z" fill="white" stroke="none"/></marker></defs><g id="grid-axes"><g id="grid" stroke="#ccc" stroke-width="1"><line id="line-0" x1="7.2" y1="155.0" x2="7.2" y2="5.0"/><line id="line-1" x1="21.7" y1="155.0" x2="21.7" y2="5.0"/><line id="line-2" x1="36.3" y1="155.0" x2="36.3" y2="5.0"/><line id="line-3" x1="50.9" y1="155.0" x2="50.9" y2="5.0"/><line id="line-4" x1="65.4" y1="155.0" x2="65.4" y2="5.0"/><line id="line-5" x1="80.0" y1="155.0" x2="80.0" y2="5.0"/><line id="line-6" x1="94.6" y1="155.0" x2="94.6" y2="5.0"/><line id="line-7" x1="109.1" y1="155.0" x2="109.1" y2="5.0"/><line id="line-8" x1="123.7" y1="155.0" x2="123.7" y2="5.0"/><line id="line-9" x1="138.3" y1="155.0" x2="138.3" y2="5.0"/><line id="line-10" x1="152.8" y1="155.0" x2="152.8" y2="5.0"/><line id="line-11" x1="5.0" y1="144.1" x2="155.0" y2="144.1"/><line id="line-12" x1="5.0" y1="129.5" x2="155.0" y2="129.5"/><line id="line-13" x1="5.0" y1="115.0" x2="155.0" y2="115.0"/><line id="line-14" x1="5.0" y1="100.4" x2="155.0" y2="100.4"/><line id="line-15" x1="5.0" y1="85.8" x2="155.0" y2="85.8"/><line id="line-16" x1="5.0" y1="71.3" x2="155.0" y2="71.3"/><line id="line-17" x1="5.0" y1="56.7" x2="155.0" y2="56.7"/><line id="line-18" x1="5.0" y1="42.1" x2="155.0" y2="42.1"/><line id="line-19" x1="5.0" y1="27.6" x2="155.0" y2="27.6"/><line id="line-20" x1="5.0" y1="13.0" x2="155.0" y2="13.0"/></g><g id="axes" stroke="black" stroke-width="2"><line id="line-21" x1="5.0" y1="85.8" x2="155.0" y2="85.8" stroke="black" stroke-width="2" marker-end="url(#arrow-head-end-2_None_24_60-black)" marker-start="url(#arrow-head-end-2_None_24_60-black)"/><line id="line-22" x1="80.0" y1="155.0" x2="80.0" y2="5.0" stroke="black" stroke-width="2" marker-end="url(#arrow-head-end-2_None_24_60-black)" marker-start="url(#arrow-head-end-2_None_24_60-black)"/></g></g><line id="line-23" x1="74.2" y1="5.7" x2="74.2" y2="154.3" stroke="orange" stroke-width="2" stroke-dasharray="9 9" fill="none" marker-end="url(#arrow-head-end-2_None_24_60-orange)" marker-start="url(#arrow-head-end-2_None_24_60-orange)"/><path id="graph-0" stroke="orange" stroke-width="2" stroke-dasharray="9 9" fill="none" d="M 24.9 152.6 L 26.2 151.3 L 27.5 150.0 L 28.8 148.7 L 30.1 147.4 L 31.3 146.1 L 32.6 144.9 L 33.9 143.6 L 35.2 142.3 L 36.5 141.0 L 37.8 139.7 L 39.1 138.4 L 40.3 137.1 L 41.6 135.9 L 42.9 134.6 L 44.2 133.3 L 45.5 132.0 L 46.8 130.7 L 48.0 129.4 L 49.3 128.1 L 50.6 126.9 L 51.9 125.6 L 53.2 124.3 L 54.5 123.0 L 55.8 121.7 L 57.0 120.4 L 58.3 119.1 L 59.6 117.9 L 60.9 116.6 L 62.2 115.3 L 63.5 114.0 L 64.8 112.7 L 66.0 111.4 L 67.3 110.2 L 68.6 108.9 L 69.9 107.6 L 71.2 106.3 L 72.5 105.0 L 73.8 103.7 L 75.0 102.4 L 76.3 101.2 L 77.6 99.9 L 78.9 98.6 L 80.2 97.3 L 81.5 96.0 L 82.7 94.7 L 84.0 93.4 L 85.3 92.2 L 86.6 90.9 L 87.9 89.6 L 89.2 88.3 L 90.5 87.0 L 91.7 85.7 L 93.0 84.4 L 94.3 83.2 L 95.6 81.9 L 96.9 80.6 L 98.2 79.3 L 99.5 78.0 L 100.7 76.7 L 102.0 75.4 L 103.3 74.2 L 104.6 72.9 L 105.9 71.6 L 107.2 70.3 L 108.5 69.0 L 109.7 67.7 L 111.0 66.5 L 112.3 65.2 L 113.6 63.9 L 114.9 62.6 L 116.2 61.3 L 117.5 60.0 L 118.7 58.7 L 120.0 57.5 L 121.3 56.2 L 122.6 54.9 L 123.9 53.6 L 125.2 52.3 L 126.4 51.0 L 127.7 49.7 L 129.0 48.5 L 130.3 47.2 L 131.6 45.9 L 132.9 44.6 L 134.2 43.3 L 135.4 42.0 L 136.7 40.7 L 138.0 39.5 L 139.3 38.2 L 140.6 36.9 L 141.9 35.6 L 143.2 34.3 L 144.4 33.0 L 145.7 31.8 L 147.0 30.5 L 148.3 29.2 L 149.6 27.9 L 150.9 26.6 L 152.2 25.3 L 153.4 24.0" marker-end="url(#arrow-head-end-2_None_24_60-orange)" marker-start="url(#arrow-head-end-2_None_24_60-orange)" clip-path="url(#clipPath-1)"/><path id="graph-1" stroke="blue" stroke-width="2" fill="none" d="M 24.9 153.4 L 25.3 153.0 L 25.8 152.6 L 26.2 152.2 L 26.6 151.7 L 27.1 151.3 L 27.5 150.9 L 27.9 150.5 L 28.3 150.1 L 28.8 149.6 L 29.2 149.2 L 29.6 148.8 L 30.1 148.4 L 30.5 148.0 L 30.9 147.5 L 31.3 147.1 L 31.8 146.7 L 32.2 146.3 L 32.6 145.9 L 33.1 145.5 L 33.5 145.0 L 33.9 144.6 L 34.3 144.2 L 34.8 143.8 L 35.2 143.4 L 35.6 143.0 L 36.1 142.5 L 36.5 142.1 L 36.9 141.7 L 37.3 141.3 L 37.8 140.9 L 38.2 140.5 L 38.6 140.0 L 39.1 139.6 L 39.5 139.2 L 39.9 138.8 L 40.3 138.4 L 40.8 138.0 L 41.2 137.6 L 41.6 137.2 L 42.0 136.7 L 42.5 136.3 L 42.9 135.9 L 43.3 135.5 L 43.8 135.1 L 44.2 134.7 L 44.6 134.3 L 45.0 133.9 L 45.5 133.5 L 45.9 133.1 L 46.3 132.7 L 46.8 132.3 L 47.2 131.9 L 47.6 131.5 L 48.0 131.1 L 48.5 130.7 L 48.9 130.3 L 49.3 129.9 L 49.8 129.5 L 50.2 129.1 L 50.6 128.7 L 51.0 128.3 L 51.5 127.9 L 51.9 127.5 L 52.3 127.1 L 52.8 126.7 L 53.2 126.3 L 53.6 125.9 L 54.0 125.5 L 54.5 125.2 L 54.9 124.8 L 55.3 124.4 L 55.8 124.0 L 56.2 123.6 L 56.6 123.3 L 57.0 122.9 L 57.5 122.5 L 57.9 122.2 L 58.3 121.8 L 58.8 121.5 L 59.2 121.1 L 59.6 120.8 L 60.0 120.4 L 60.5 120.1 L 60.9 119.8 L 61.3 119.4 L 61.8 119.1 L 62.2 118.8 L 62.6 118.5 L 63.0 118.2 L 63.5 118.0 L 63.9 117.7 L 64.3 117.5 L 64.8 117.2 L 65.2 117.0 L 65.6 116.8 L 66.0 116.6 L 66.5 116.5 L 66.9 116.4 L 67.3 116.3 L 67.8 116.3 L 68.2 116.4 L 68.6 116.5 L 69.0 116.7 L 69.5 117.0 L 69.9 117.5 L 70.3 118.2 L 70.8 119.1 L 71.2 120.5 L 71.6 122.4 L 72.0 125.3 L 72.5 129.8 L 72.9 137.7 L 73.3 154.0 L 73.8 204.0 M 74.3 -144.7 L 74.6 5.1 L 75.0 53.3 L 75.5 69.1 L 75.9 76.9 L 76.3 81.4 L 76.8 84.3 L 77.2 86.2 L 77.6 87.5 L 78.0 88.5 L 78.5 89.1 L 78.9 89.6 L 79.3 89.9 L 79.7 90.1 L 80.2 90.2 L 80.6 90.3 L 81.0 90.3 L 81.5 90.2 L 81.9 90.1 L 82.3 89.9 L 82.7 89.8 L 83.2 89.6 L 83.6 89.4 L 84.0 89.1 L 84.5 88.9 L 84.9 88.6 L 85.3 88.4 L 85.7 88.1 L 86.2 87.8 L 86.6 87.5 L 87.0 87.1 L 87.5 86.8 L 87.9 86.5 L 88.3 86.2 L 88.7 85.8 L 89.2 85.5 L 89.6 85.1 L 90.0 84.8 L 90.5 84.4 L 90.9 84.0 L 91.3 83.7 L 91.7 83.3 L 92.2 82.9 L 92.6 82.6 L 93.0 82.2 L 93.5 81.8 L 93.9 81.4 L 94.3 81.1 L 94.7 80.7 L 95.2 80.3 L 95.6 79.9 L 96.0 79.5 L 96.5 79.1 L 96.9 78.7 L 97.3 78.3 L 97.7 77.9 L 98.2 77.5 L 98.6 77.1 L 99.0 76.7 L 99.5 76.3 L 99.9 75.9 L 100.3 75.5 L 100.7 75.1 L 101.2 74.7 L 101.6 74.3 L 102.0 73.9 L 102.5 73.5 L 102.9 73.1 L 103.3 72.7 L 103.7 72.3 L 104.2 71.9 L 104.6 71.5 L 105.0 71.1 L 105.5 70.7 L 105.9 70.3 L 106.3 69.8 L 106.7 69.4 L 107.2 69.0 L 107.6 68.6 L 108.0 68.2 L 108.5 67.8 L 108.9 67.4 L 109.3 67.0 L 109.7 66.5 L 110.2 66.1 L 110.6 65.7 L 111.0 65.3 L 111.5 64.9 L 111.9 64.5 L 112.3 64.1 L 112.7 63.6 L 113.2 63.2 L 113.6 62.8 L 114.0 62.4 L 114.5 62.0 L 114.9 61.6 L 115.3 61.1 L 115.7 60.7 L 116.2 60.3 L 116.6 59.9 L 117.0 59.5 L 117.5 59.0 L 117.9 58.6 L 118.3 58.2 L 118.7 57.8 L 119.2 57.4 L 119.6 56.9 L 120.0 56.5 L 120.4 56.1 L 120.9 55.7 L 121.3 55.3 L 121.7 54.8 L 122.2 54.4 L 122.6 54.0 L 123.0 53.6 L 123.4 53.2 L 123.9 52.7 L 124.3 52.3 L 124.7 51.9 L 125.2 51.5 L 125.6 51.1 L 126.0 50.6 L 126.4 50.2 L 126.9 49.8 L 127.3 49.4 L 127.7 49.0 L 128.2 48.5 L 128.6 48.1 L 129.0 47.7 L 129.4 47.3 L 129.9 46.8 L 130.3 46.4 L 130.7 46.0 L 131.2 45.6 L 131.6 45.1 L 132.0 44.7 L 132.4 44.3 L 132.9 43.9 L 133.3 43.5 L 133.7 43.0 L 134.2 42.6 L 134.6 42.2 L 135.0 41.8 L 135.4 41.3 L 135.9 40.9 L 136.3 40.5 L 136.7 40.1 L 137.2 39.6 L 137.6 39.2 L 138.0 38.8 L 138.4 38.4 L 138.9 37.9 L 139.3 37.5 L 139.7 37.1 L 140.2 36.7 L 140.6 36.3 L 141.0 35.8 L 141.4 35.4 L 141.9 35.0 L 142.3 34.6 L 142.7 34.1 L 143.2 33.7 L 143.6 33.3 L 144.0 32.9 L 144.4 32.4 L 144.9 32.0 L 145.3 31.6 L 145.7 31.2 L 146.2 30.7 L 146.6 30.3 L 147.0 29.9 L 147.4 29.5 L 147.9 29.0 L 148.3 28.6 L 148.7 28.2 L 149.2 27.8 L 149.6 27.3 L 150.0 26.9 L 150.4 26.5 L 150.9 26.1 L 151.3 25.6 L 151.7 25.2 L 152.2 24.8 L 152.6 24.4 L 153.0 23.9 L 153.4 23.5" marker-end="url(#arrow-head-end-2_None_24_60-blue)" marker-start="url(#arrow-head-end-2_None_24_60-blue)" clip-path="url(#clipPath-1)"/><line id="line-24" x1="73.3" y1="149.9" x2="73.6" y2="155.7" stroke="blue" stroke-width="2" stroke-dasharray="9 9" fill="none" marker-end="url(#arrow-head-end-2_None_24_60-blue)"/><line id="line-25" x1="74.5" y1="13.0" x2="74.4" y2="5.7" stroke="blue" stroke-width="2" stroke-dasharray="9 9" fill="none" marker-end="url(#arrow-head-end-2_None_24_60-blue)"/></svg>