<svg xmlns="http://www.w3.org/2000/svg" id="diagram" width="160" height="160"><defs><clipPath id="clipPath-0"><rect x="5.0" y="5.0" width="150.0" height="150.0"/></clipPath><clipPath id="clipPath-1"><rect x="5.0" y="5.0" width="150.0" height="150.0"/></clipPath><marker id="arrow-head-end-2_None_24_60-black" markerWidth="9.0" markerHeight="8.0" markerUnits="userSpaceOnUse" orient="auto-start-reverse" refX="6.5" refY="4.0"><path d="M 9.0 4.0L 0.0 8.0L 1.7 5.0L 1.7 3.0L 0.0 0.0Z" fill="black" stroke="none"/></marker><marker id="arrow-head-end-2_None_24_60-black-outline" markerWidth="13.0" markerHeight="12.0" markerUnits="userSpaceOnUse" orient="auto-start-reverse" refX="8.5" refY="6.0"><path d="M 11.8 7.8 L 2.8 11.8 A 2 2 0 0 1 0.0 10.0 L 0.0 2.0 A 2 2 0 0 1 2.8 0.2 L 11.8 4.2 A 2 2 0 0 1 11.8 7.8 Z" fill="white" stroke="none"/></marker><marker id="arrow-head-end-2_None_24_60-orange" markerWidth="9.0" markerHeight="8.0" markerUnits="userSpaceOnUse" orient="auto-start-reverse" refX="6.5" refY="4.0"><path d="M 9.0 4.0L 0.0 8.0L 1.7 5.0L 1.7 3.0L 0.0 0.0Z" fill="orange" stroke="none"/></marker><marker id="arrow-head-end-2_None_24_60-orange-outline" markerWidth="13.0" markerHeight="12.0" markerUnits="userSpaceOnUse" orient="auto-start-reverse" refX="8.5" refY="6.0"><path d="M 11.8 7.8 L 2.8 11.8 A 2 2 0 0 1 0.0 10.0 L 0.0 2.0 A 2 2 0 0 1 2.8 0.2 L 11.8 4.2 A 2 2 0 0 1 11.8 7.8 Z" fill="white" stroke="none"/></marker><marker id="arrow-head-end-2_None_24_60-blue" markerWidth="9.0" markerHeight="8.0" markerUnits="userSpaceOnUse" orient="auto-start-reverse" refX="6.5" refY="4.0"><path d="M 9.0 4.0L 0.0 8.0L 1.7 5.0L 1.7 3.0L 0.0 0.0Z" fill="blue" stroke="none"/></marker><marker id="arrow-head-end-2_None_24_60-blue-outline" markerWidth="13.0" markerHeight="12.0" markerUnits="userSpaceOnUse" orient="auto-start-reverse" refX="8.5" refY="6.0"><path d="M 11.8 7.8 L 2.8 11.8 A 2 2 0 0 1 0.0 10.0 L 0.0 2.0 A 2 2 0 0 1 2.8 0.2 L 11.8 4.2 A 2 2 0 0 1 11.8 7.8 Z" fill="white" stroke="none"/></marker></defs><g id="grid-axes"><g id="grid" stroke="#ccc" stroke-width="1"><line id="line-0" x1="14.8" y1="155.0" x2="14.8" y2="5.0"/><line id="line-1" x1="27.8" y1="155.0" x2="27.8" y2="5.0"/><line id="line-2" x1="40.9" y1="155.0" x2="40.9" y2="5.0"/><line id="line-3" x1="53.9" y1="155.0" x2="53.9" y2="5.0"/><line id="line-4" x1="67.0" y1="155.0" x2="67.0" y2="5.0"/><line id="line-5" x1="80.0" y1="155.0" x2="80.0" y2="5.0"/><line id="line-6" x1="93.0" y1="155.0" x2="93.0" y2="5.0"/><line id="line-7" x1="106.1" y1="155.0" x2="106.1" y2="5.0"/><line id="line-8" x1="119.1" y1="155.0" x2="119.1" y2="5.0"/><line id="line-9" x1="132.2" y1="155.0" x2="132.2" y2="5.0"/><line id="line-10" x1="145.2" y1="155.0" x2="145.2" y2="5.0"/><line id="line-11" x1="5.0" y1="145.2" x2="155.0" y2="145.2"/><line id="line-12" x1="5.0" y1="132.2" x2="155.0" y2="132.2"/><line id="line-13" x1="5.0" y1="119.1" x2="155.0" y2="119.1"/><line id="line-14" x1="5.0" y1="106.1" x2="155.0" y2="106.1"/><line id="line-15" x1="5.0" y1="93.0" x2="155.0" y2="93.0"/><line id="line-16" x1="5.0" y1="80.0" x2="155.0" y2="80.0"/><line id="line-17" x1="5.0" y1="67.0" x2="155.0" y2="67.0"/><line id="line-18" x1="5.0" y1="53.9" x2="155.0" y2="53.9"/><line id="line-19" x1="5.0" y1="40.9" x2="155.0" y2="40.9"/><line id="line-20" x1="5.0" y1="27.8" x2="155.0" y2="27.8"/><line id="line-21" x1="5.0" y1="14.8" x2="155.0" y2="14.8"/></g><g id="axes" stroke="black" stroke-width="2"><line id="line-22" x1="5.0" y1="106.1" x2="155.0" y2="106.1" stroke="black" stroke-width="2" marker-end="url(#arrow-head-end-2_None_24_60-black)" marker-start="url(#arrow-head-end-2_None_24_60-black)"/><line id="line-23" x1="80.0" y1="155.0" x2="80.0" y2="5.0" stroke="black" stroke-width="2" marker-end="url(#arrow-head-end-2_None_24_60-black)" marker-start="url(#arrow-head-end-2_None_24_60-black)"/></g></g><line id="line-24" x1="53.9" y1="8.3" x2="53.9" y2="151.7" stroke="orange" stroke-width="2" stroke-dasharray="9 9" fill="none" marker-end="url(#arrow-head-end-2_None_24_60-orange)" marker-start="url(#arrow-head-end-2_None_24_60-orange)"/><line id="line-25" x1="5.0" y1="93.0" x2="155.0" y2="93.0" stroke="orange" stroke-width="2" stroke-dasharray="9 9" fill="none" marker-end="url(#arrow-head-end-2_None_24_60-orange)" marker-start="url(#arrow-head-end-2_None_24_60-orange)"/><path id="graph-0" stroke="blue" stroke-width="2" fill="none" d="M 7.0 89.4 L 8.5 89.3 L 9.9 89.2 L 11.4 89.0 L 12.8 88.9 L 14.3 88.7 L 15.8 88.6 L 17.2 88.4 L 18.7 88.2 L 20.1 88.0 L 21.6 87.8 L 23.1 87.5 L 24.5 87.3 L 26.0 87.0 L 27.4 86.6 L 28.9 86.2 L 30.4 85.8 L 31.8 85.3 L 33.3 84.8 L 34.7 84.2 L 36.2 83.4 L 37.7 82.6 L 39.1 81.5 L 40.6 80.3 L 42.0 78.7 L 43.5 76.7 L 45.0 74.0 L 46.4 70.3 L 47.9 64.8 L 49.3 55.8 L 50.8 38.4 L 52.3 -9.9 M 54.7 304.4 L 55.2 227.3 L 56.6 155.4 L 58.1 133.7 L 59.6 123.2 L 61.0 117.0 L 62.5 112.9 L 63.9 110.0 L 65.4 107.9 L 66.9 106.2 L 68.3 104.9 L 69.8 103.8 L 71.2 102.9 L 72.7 102.1 L 74.2 101.4 L 75.6 100.9 L 77.1 100.4 L 78.5 100.0 L 80.0 99.6 L 81.5 99.2 L 82.9 98.9 L 84.4 98.6 L 85.8 98.4 L 87.3 98.1 L 88.8 97.9 L 90.2 97.7 L 91.7 97.5 L 93.1 97.4 L 94.6 97.2 L 96.1 97.1 L 97.5 96.9 L 99.0 96.8 L 100.4 96.7 L 101.9 96.6 L 103.4 96.5 L 104.8 96.4 L 106.3 96.3 L 107.7 96.2 L 109.2 96.1 L 110.7 96.0 L 112.1 96.0 L 113.6 95.9 L 115.0 95.8 L 116.5 95.8 L 118.0 95.7 L 119.4 95.6 L 120.9 95.6 L 122.3 95.5 L 123.8 95.5 L 125.3 95.4 L 126.7 95.4 L 128.2 95.3 L 129.6 95.3 L 131.1 95.2 L 132.6 95.2 L 134.0 95.2 L 135.5 95.1 L 136.9 95.1 L 138.4 95.1 L 139.9 95.0 L 141.3 95.0 L 142.8 95.0 L 144.2 94.9 L 145.7 94.9 L 147.2 94.9 L 148.6 94.8 L 150.1 94.8 L 151.5 94.8 L 153.0 94.8" marker-end="url(#arrow-head-end-2_None_24_60-blue)" marker-start="url(#arrow-head-end-2_None_24_60-blue)" clip-path="url(#clipPath-1)"/><line id="line-26" x1="51.5" y1="14.8" x2="51.8" y2="5.0" stroke="blue" stroke-width="2" stroke-dasharray="9 9" fill="none" marker-end="url(#arrow-head-end-2_None_24_60-blue)"/><line id="line-27" x1="57.3" y1="145.2" x2="56.8" y2="155.0" stroke="blue" stroke-width="2" stroke-dasharray="9 9" fill="none" marker-end="url(#arrow-head-end-2_None_24_60-blue)"/></svg>