<svg xmlns="http://www.w3.org/2000/svg" id="diagram" width="160" height="160"><defs><clipPath id="clipPath-0"><rect x="5.0" y="5.0" width="150.0" height="150.0"/></clipPath><clipPath id="clipPath-1"><rect x="5.0" y="5.0" width="150.0" height="150.0"/></clipPath><marker id="arrow-head-end-2_None_24_60-black" markerWidth="9.0" markerHeight="8.0" markerUnits="userSpaceOnUse" orient="auto-start-reverse" refX="6.5" refY="4.0"><path d="M 9.0 4.0L 0.0 8.0L 1.7 5.0L 1.7 3.0L 0.0 0.0Z" fill="black" stroke="none"/></marker><marker id="arrow-head-end-2_None_24_60-black-outline" markerWidth="13.0" markerHeight="12.0" markerUnits="userSpaceOnUse" orient="auto-start-reverse" refX="8.5" refY="6.0"><path d="M 11.8 7.8 L 2.8 11.8 A 2 2 0 0 1 0.0 10.0 L 0.0 2.0 A 2 2 0 0 1 2.8 0.2 L 11.8 4.2 A 2 2 0 0 1 11.8 7.8 Z" fill="white" stroke="none"/></marker><marker id="arrow-head-end-2_None_24_60-blue" markerWidth="9.0" markerHeight="8.0" markerUnits="userSpaceOnUse" orient="auto-start-reverse" refX="6.5" refY="4.0"><path d="M 9.0 4.0L 0.0 8.0L 1.7 5.0L 1.7 3.0L 0.0 0.0Z" fill="blue" stroke="none"/></marker><marker id="arrow-head-end-2_None_24_60-blue-outline" markerWidth="13.0" markerHeight="12.0" markerUnits="userSpaceOnUse" orient="auto-start-reverse" refX="8.5" refY="6.0"><path d="M 11.8 7.8 L 2.8 11.8 A 2 2 0 0 1 0.0 10.0 L 0.0 2.0 A 2 2 0 0 1 2.8 0.2 L 11.8 4.2 A 2 2 0 0 1 11.8 7.8 Z" fill="white" stroke="none"/></marker></defs><g id="grid-axes"><g id="grid" stroke="#ccc" stroke-width="1"><line id="line-0" x1="14.8" y1="155.0" x2="14.8" y2="5.0"/><line id="line-1" x1="27.8" y1="155.0" x2="27.8" y2="5.0"/><line id="line-2" x1="40.9" y1="155.0" x2="40.9" y2="5.0"/><line id="line-3" x1="53.9" y1="155.0" x2="53.9" y2="5.0"/><line id="line-4" x1="67.0" y1="155.0" x2="67.0" y2="5.0"/><line id="line-5" x1="80.0" y1="155.0" x2="80.0" y2="5.0"/><line id="line-6" x1="93.0" y1="155.0" x2="93.0" y2="5.0"/><line id="line-7" x1="106.1" y1="155.0" x2="106.1" y2="5.0"/><line id="line-8" x1="119.1" y1="155.0" x2="119.1" y2="5.0"/><line id="line-9" x1="132.2" y1="155.0" x2="132.2" y2="5.0"/><line id="line-10" x1="145.2" y1="155.0" x2="145.2" y2="5.0"/><line id="line-11" x1="5.0" y1="145.2" x2="155.0" y2="145.2"/><line id="line-12" x1="5.0" y1="132.2" x2="155.0" y2="132.2"/><line id="line-13" x1="5.0" y1="119.1" x2="155.0" y2="119.1"/><line id="line-14" x1="5.0" y1="106.1" x2="155.0" y2="106.1"/><line id="line-15" x1="5.0" y1="93.0" x2="155.0" y2="93.0"/><line id="line-16" x1="5.0" y1="80.0" x2="155.0" y2="80.0"/><line id="line-17" x1="5.0" y1="67.0" x2="155.0" y2="67.0"/><line id="line-18" x1="5.0" y1="53.9" x2="155.0" y2="53.9"/><line id="line-19" x1="5.0" y1="40.9" x2="155.0" y2="40.9"/><line id="line-20" x1="5.0" y1="27.8" x2="155.0" y2="27.8"/><line id="line-21" x1="5.0" y1="14.8" x2="155.0" y2="14.8"/></g><g id="axes" stroke="black" stroke-width="2"><line id="line-22" x1="5.0" y1="106.1" x2="155.0" y2="106.1" stroke="black" stroke-width="2" marker-end="url(#arrow-head-end-2_None_24_60-black)" marker-start="url(#arrow-head-end-2_None_24_60-black)"/><line id="line-23" x1="80.0" y1="155.0" x2="80.0" y2="5.0" stroke="black" stroke-width="2" marker-end="url(#arrow-head-end-2_None_24_60-black)" marker-start="url(#arrow-head-end-2_None_24_60-black)"/></g></g><path id="graph-0" stroke="blue" stroke-width="2" stroke-linecap="round" fill="none" d="M 27.8 67.1 L 28.7 68.6 L 30.2 69.7 L 31.6 70.5 L 33.1 71.1 L 34.6 71.7 L 36.1 72.1 L 37.6 72.6 L 39.0 73.0 L 40.5 73.4 L 42.0 73.8 L 43.5 74.1 L 45.0 74.4 L 46.4 74.7 L 47.9 75.1 L 49.4 75.3 L 50.9 75.6 L 52.4 75.9 L 53.8 76.2 L 55.3 76.4 L 56.8 76.7 L 58.3 76.9 L 59.8 77.2 L 61.2 77.4 L 62.7 77.6 L 64.2 77.8 L 65.7 78.1 L 67.2 78.3 L 68.6 78.5 L 70.1 78.7 L 71.6 78.9 L 73.1 79.1 L 74.6 79.3 L 76.0 79.5 L 77.5 79.7 L 79.0 79.9 L 80.5 80.1 L 82.0 80.2 L 83.4 80.4 L 84.9 80.6 L 86.4 80.8 L 87.9 81.0 L 89.4 81.1 L 90.8 81.3 L 92.3 81.5 L 93.8 81.6 L 95.3 81.8 L 96.8 81.9 L 98.2 82.1 L 99.7 82.3 L 101.2 82.4 L 102.7 82.6 L 104.2 82.7 L 105.6 82.9 L 107.1 83.0 L 108.6 83.2 L 110.1 83.3 L 111.6 83.5 L 113.0 83.6 L 114.5 83.8 L 116.0 83.9 L 117.5 84.1 L 119.0 84.2 L 120.4 84.3 L 121.9 84.5 L 123.4 84.6 L 124.9 84.7 L 126.4 84.9 L 127.8 85.0 L 129.3 85.1 L 130.8 85.3 L 132.3 85.4 L 133.8 85.5 L 135.2 85.7 L 136.7 85.8 L 138.2 85.9 L 139.7 86.1 L 141.2 86.2 L 142.6 86.3 L 144.1 86.4 L 145.6 86.6 L 147.1 86.7 L 148.6 86.8 L 150.0 86.9 L 151.5 87.0 L 153.0 87.2" marker-end="url(#arrow-head-end-2_None_24_60-blue)" clip-path="url(#clipPath-1)"/></svg>