<svg xmlns="http://www.w3.org/2000/svg" id="diagram" width="160" height="160"><defs><clipPath id="clipPath-0"><rect x="5.0" y="5.0" width="150.0" height="150.0"/></clipPath><clipPath id="clipPath-1"><rect x="5.0" y="5.0" width="150.0" height="150.0"/></clipPath><marker id="arrow-head-end-2_None_24_60-black" markerWidth="9.0" markerHeight="8.0" markerUnits="userSpaceOnUse" orient="auto-start-reverse" refX="6.5" refY="4.0"><path d="M 9.0 4.0L 0.0 8.0L 1.7 5.0L 1.7 3.0L 0.0 0.0Z" fill="black" stroke="none"/></marker><marker id="arrow-head-end-2_None_24_60-black-outline" markerWidth="13.0" markerHeight="12.0" markerUnits="userSpaceOnUse" orient="auto-start-reverse" refX="8.5" refY="6.0"><path d="M 11.8 7.8 L 2.8 11.8 A 2 2 0 0 1 0.0 10.0 L 0.0 2.0 A 2 2 0 0 1 2.8 0.2 L 11.8 4.2 A 2 2 0 0 1 11.8 7.8 Z" fill="white" stroke="none"/></marker><marker id="arrow-head-end-2_None_24_60-blue" markerWidth="9.0" markerHeight="8.0" markerUnits="userSpaceOnUse" orient="auto-start-reverse" refX="6.5" refY="4.0"><path d="M 9.0 4.0L 0.0 8.0L 1.7 5.0L 1.7 3.0L 0.0 0.0Z" fill="blue" stroke="none"/></marker><marker id="arrow-head-end-2_None_24_60-blue-outline" markerWidth="13.0" markerHeight="12.0" markerUnits="userSpaceOnUse" orient="auto-start-reverse" refX="8.5" refY="6.0"><path d="M 11.8 7.8 L 2.8 11.8 A 2 2 0 0 1 0.0 10.0 L 0.0 2.0 A 2 2 0 0 1 2.8 0.2 L 11.8 4.2 A 2 2 0 0 1 11.8 7.8 Z" fill="white" stroke="none"/></marker></defs><g id="grid-axes"><g id="grid" stroke="#ccc" stroke-width="1"><line id="line-0" x1="14.8" y1="155.0" x2="14.8" y2="5.0"/><line id="line-1" x1="27.8" y1="155.0" x2="27.8" y2="5.0"/><line id="line-2" x1="40.9" y1="155.0" x2="40.9" y2="5.0"/><line id="line-3" x1="53.9" y1="155.0" x2="53.9" y2="5.0"/><line id="line-4" x1="67.0" y1="155.0" x2="67.0" y2="5.0"/><line id="line-5" x1="80.0" y1="155.0" x2="80.0" y2="5.0"/><line id="line-6" x1="93.0" y1="155.0" x2="93.0" y2="5.0"/><line id="line-7" x1="106.1" y1="155.0" x2="106.1" y2="5.0"/><line id="line-8" x1="119.1" y1="155.0" x2="119.1" y2="5.0"/><line id="line-9" x1="132.2" y1="155.0" x2="132.2" y2="5.0"/><line id="line-10" x1="145.2" y1="155.0" x2="145.2" y2="5.0"/><line id="line-11" x1="5.0" y1="145.2" x2="155.0" y2="145.2"/><line id="line-12" x1="5.0" y1="132.2" x2="155.0" y2="132.2"/><line id="line-13" x1="5.0" y1="119.1" x2="155.0" y2="119.1"/><line id="line-14" x1="5.0" y1="106.1" x2="155.0" y2="106.1"/><line id="line-15" x1="5.0" y1="93.0" x2="155.0" y2="93.0"/><line id="line-16" x1="5.0" y1="80.0" x2="155.0" y2="80.0"/><line id="line-17" x1="5.0" y1="67.0" x2="155.0" y2="67.0"/><line id="line-18" x1="5.0" y1="53.9" x2="155.0" y2="53.9"/><line id="line-19" x1="5.0" y1="40.9" x2="155.0" y2="40.9"/><line id="line-20" x1="5.0" y1="27.8" x2="155.0" y2="27.8"/><line id="line-21" x1="5.0" y1="14.8" x2="155.0" y2="14.8"/></g><g id="axes" stroke="black" stroke-width="2"><line id="line-22" x1="5.0" y1="80.0" x2="155.0" y2="80.0" stroke="black" stroke-width="2" marker-end="url(#arrow-head-end-2_None_24_60-black)" marker-start="url(#arrow-head-end-2_None_24_60-black)"/><line id="line-23" x1="80.0" y1="155.0" x2="80.0" y2="5.0" stroke="black" stroke-width="2" marker-end="url(#arrow-head-end-2_None_24_60-black)" marker-start="url(#arrow-head-end-2_None_24_60-black)"/></g></g><path id="graph-0" stroke="blue" stroke-width="2" fill="none" d="M 42.0 152.7 L 42.7 145.0 L 43.4 137.6 L 44.2 130.6 L 44.9 123.9 L 45.6 117.6 L 46.4 111.6 L 47.1 105.9 L 47.8 100.5 L 48.6 95.4 L 49.3 90.6 L 50.0 86.2 L 50.8 82.0 L 51.5 78.0 L 52.2 74.4 L 53.0 71.0 L 53.7 67.9 L 54.4 65.0 L 55.2 62.3 L 55.9 59.9 L 56.6 57.7 L 57.4 55.8 L 58.1 54.0 L 58.8 52.5 L 59.6 51.2 L 60.3 50.0 L 61.0 49.1 L 61.8 48.3 L 62.5 47.7 L 63.2 47.3 L 64.0 47.0 L 64.7 46.9 L 65.4 46.9 L 66.2 47.1 L 66.9 47.4 L 67.6 47.8 L 68.4 48.3 L 69.1 49.0 L 69.8 49.7 L 70.6 50.6 L 71.3 51.5 L 72.0 52.5 L 72.8 53.6 L 73.5 54.8 L 74.2 56.0 L 75.0 57.3 L 75.7 58.6 L 76.4 60.0 L 77.2 61.4 L 77.9 62.8 L 78.6 64.2 L 79.4 65.7 L 80.1 67.2 L 80.8 68.6 L 81.6 70.1 L 82.3 71.5 L 83.0 72.9 L 83.8 74.3 L 84.5 75.7 L 85.2 77.0 L 86.0 78.3 L 86.7 79.5 L 87.4 80.6 L 88.2 81.7 L 88.9 82.7 L 89.6 83.6 L 90.4 84.4 L 91.1 85.1 L 91.8 85.8 L 92.6 86.3 L 93.3 86.6 L 94.0 86.9 L 94.8 87.0 L 95.5 87.0 L 96.2 86.9 L 97.0 86.5 L 97.7 86.1 L 98.4 85.4 L 99.2 84.6 L 99.9 83.6 L 100.6 82.4 L 101.4 81.0 L 102.1 79.4 L 102.8 77.6 L 103.6 75.6 L 104.3 73.4 L 105.0 70.9 L 105.8 68.2 L 106.5 65.3 L 107.2 62.1 L 108.0 58.6 L 108.7 54.9 L 109.4 50.9 L 110.2 46.6 L 110.9 42.0 L 111.6 37.2 L 112.4 32.0 L 113.1 26.5 L 113.8 20.8 L 114.6 14.7 L 115.3 8.2" marker-end="url(#arrow-head-end-2_None_24_60-blue)" marker-start="url(#arrow-head-end-2_None_24_60-blue)" clip-path="url(#clipPath-1)"/></svg>