<svg xmlns="http://www.w3.org/2000/svg" id="diagram" width="160" height="160"><defs><clipPath id="clipPath-0"><rect x="5.0" y="5.0" width="150.0" height="150.0"/></clipPath><clipPath id="clipPath-1"><rect x="5.0" y="5.0" width="150.0" height="150.0"/></clipPath><marker id="arrow-head-end-2_None_24_60-black" markerWidth="9.0" markerHeight="8.0" markerUnits="userSpaceOnUse" orient="auto-start-reverse" refX="6.5" refY="4.0"><path d="M 9.0 4.0L 0.0 8.0L 1.7 5.0L 1.7 3.0L 0.0 0.0Z" fill="black" stroke="none"/></marker><marker id="arrow-head-end-2_None_24_60-black-outline" markerWidth="13.0" markerHeight="12.0" markerUnits="userSpaceOnUse" orient="auto-start-reverse" refX="8.5" refY="6.0"><path d="M 11.8 7.8 L 2.8 11.8 A 2 2 0 0 1 0.0 10.0 L 0.0 2.0 A 2 2 0 0 1 2.8 0.2 L 11.8 4.2 A 2 2 0 0 1 11.8 7.8 Z" fill="white" stroke="none"/></marker><marker id="arrow-head-end-2_None_24_60-blue" markerWidth="9.0" markerHeight="8.0" markerUnits="userSpaceOnUse" orient="auto-start-reverse" refX="6.5" refY="4.0"><path d="M 9.0 4.0L 0.0 8.0L 1.7 5.0L 1.7 3.0L 0.0 0.0Z" fill="blue" stroke="none"/></marker><marker id="arrow-head-end-2_None_24_60-blue-outline" markerWidth="13.0" markerHeight="12.0" markerUnits="userSpaceOnUse" orient="auto-start-reverse" refX="8.5" refY="6.0"><path d="M 11.8 7.8 L 2.8 11.8 A 2 2 0 0 1 0.0 10.0 L 0.0 2.0 A 2 2 0 0 1 2.8 0.2 L 11.8 4.2 A 2 2 0 0 1 11.8 7.8 Z" fill="white" stroke="none"/></marker></defs><g id="grid-axes"><g id="grid" stroke="#ccc" stroke-width="1"><line id="line-0" x1="14.8" y1="155.0" x2="14.8" y2="5.0"/><line id="line-1" x1="27.8" y1="155.0" x2="27.8" y2="5.0"/><line id="line-2" x1="40.9" y1="155.0" x2="40.9" y2="5.0"/><line id="line-3" x1="53.9" y1="155.0" x2="53.9" y2="5.0"/><line id="line-4" x1="67.0" y1="155.0" x2="67.0" y2="5.0"/><line id="line-5" x1="80.0" y1="155.0" x2="80.0" y2="5.0"/><line id="line-6" x1="93.0" y1="155.0" x2="93.0" y2="5.0"/><line id="line-7" x1="106.1" y1="155.0" x2="106.1" y2="5.0"/><line id="line-8" x1="119.1" y1="155.0" x2="119.1" y2="5.0"/><line id="line-9" x1="132.2" y1="155.0" x2="132.2" y2="5.0"/><line id="line-10" x1="145.2" y1="155.0" x2="145.2" y2="5.0"/><line id="line-11" x1="5.0" y1="145.2" x2="155.0" y2="145.2"/><line id="line-12" x1="5.0" y1="132.2" x2="155.0" y2="132.2"/><line id="line-13" x1="5.0" y1="119.1" x2="155.0" y2="119.1"/><line id="line-14" x1="5.0" y1="106.1" x2="155.0" y2="106.1"/><line id="line-15" x1="5.0" y1="93.0" x2="155.0" y2="93.0"/><line id="line-16" x1="5.0" y1="80.0" x2="155.0" y2="80.0"/><line id="line-17" x1="5.0" y1="67.0" x2="155.0" y2="67.0"/><line id="line-18" x1="5.0" y1="53.9" x2="155.0" y2="53.9"/><line id="line-19" x1="5.0" y1="40.9" x2="155.0" y2="40.9"/><line id="line-20" x1="5.0" y1="27.8" x2="155.0" y2="27.8"/><line id="line-21" x1="5.0" y1="14.8" x2="155.0" y2="14.8"/></g><g id="axes" stroke="black" stroke-width="2"><line id="line-22" x1="5.0" y1="80.0" x2="155.0" y2="80.0" stroke="black" stroke-width="2" marker-end="url(#arrow-head-end-2_None_24_60-black)" marker-start="url(#arrow-head-end-2_None_24_60-black)"/><line id="line-23" x1="80.0" y1="155.0" x2="80.0" y2="5.0" stroke="black" stroke-width="2" marker-end="url(#arrow-head-end-2_None_24_60-black)" marker-start="url(#arrow-head-end-2_None_24_60-black)"/></g></g><path id="graph-0" stroke="blue" stroke-width="2" fill="none" d="M 43.3 152.3 L 44.0 145.2 L 44.7 138.4 L 45.5 132.0 L 46.2 125.9 L 46.9 120.1 L 47.7 114.7 L 48.4 109.5 L 49.1 104.7 L 49.9 100.1 L 50.6 95.8 L 51.3 91.8 L 52.1 88.1 L 52.8 84.7 L 53.5 81.5 L 54.3 78.6 L 55.0 75.9 L 55.8 73.4 L 56.5 71.2 L 57.2 69.2 L 58.0 67.4 L 58.7 65.8 L 59.4 64.4 L 60.2 63.3 L 60.9 62.3 L 61.6 61.5 L 62.4 60.8 L 63.1 60.4 L 63.8 60.1 L 64.6 59.9 L 65.3 59.9 L 66.0 60.1 L 66.8 60.3 L 67.5 60.7 L 68.2 61.3 L 69.0 61.9 L 69.7 62.6 L 70.4 63.5 L 71.2 64.4 L 71.9 65.4 L 72.7 66.5 L 73.4 67.6 L 74.1 68.8 L 74.9 70.1 L 75.6 71.4 L 76.3 72.8 L 77.1 74.2 L 77.8 75.6 L 78.5 77.1 L 79.3 78.5 L 80.0 80.0 L 80.7 81.5 L 81.5 82.9 L 82.2 84.4 L 82.9 85.8 L 83.7 87.2 L 84.4 88.6 L 85.1 89.9 L 85.9 91.2 L 86.6 92.4 L 87.3 93.5 L 88.1 94.6 L 88.8 95.6 L 89.6 96.5 L 90.3 97.4 L 91.0 98.1 L 91.8 98.7 L 92.5 99.3 L 93.2 99.7 L 94.0 99.9 L 94.7 100.1 L 95.4 100.1 L 96.2 99.9 L 96.9 99.6 L 97.6 99.2 L 98.4 98.5 L 99.1 97.7 L 99.8 96.7 L 100.6 95.6 L 101.3 94.2 L 102.0 92.6 L 102.8 90.8 L 103.5 88.8 L 104.2 86.6 L 105.0 84.1 L 105.7 81.4 L 106.5 78.5 L 107.2 75.3 L 107.9 71.9 L 108.7 68.2 L 109.4 64.2 L 110.1 59.9 L 110.9 55.3 L 111.6 50.5 L 112.3 45.3 L 113.1 39.9 L 113.8 34.1 L 114.5 28.0 L 115.3 21.6 L 116.0 14.8 L 116.7 7.7" marker-end="url(#arrow-head-end-2_None_24_60-blue)" marker-start="url(#arrow-head-end-2_None_24_60-blue)" clip-path="url(#clipPath-1)"/></svg>