<svg xmlns="http://www.w3.org/2000/svg" id="diagram" width="160" height="160"><defs><clipPath id="clipPath-0"><rect x="5.0" y="5.0" width="150.0" height="150.0"/></clipPath><clipPath id="clipPath-1"><rect x="5.0" y="5.0" width="150.0" height="150.0"/></clipPath><marker id="arrow-head-end-2_None_24_60-black" markerWidth="9.0" markerHeight="8.0" markerUnits="userSpaceOnUse" orient="auto-start-reverse" refX="6.5" refY="4.0"><path d="M 9.0 4.0L 0.0 8.0L 1.7 5.0L 1.7 3.0L 0.0 0.0Z" fill="black" stroke="none"/></marker><marker id="arrow-head-end-2_None_24_60-black-outline" markerWidth="13.0" markerHeight="12.0" markerUnits="userSpaceOnUse" orient="auto-start-reverse" refX="8.5" refY="6.0"><path d="M 11.8 7.8 L 2.8 11.8 A 2 2 0 0 1 0.0 10.0 L 0.0 2.0 A 2 2 0 0 1 2.8 0.2 L 11.8 4.2 A 2 2 0 0 1 11.8 7.8 Z" fill="white" stroke="none"/></marker><marker id="arrow-head-end-2_None_24_60-blue" markerWidth="9.0" markerHeight="8.0" markerUnits="userSpaceOnUse" orient="auto-start-reverse" refX="6.5" refY="4.0"><path d="M 9.0 4.0L 0.0 8.0L 1.7 5.0L 1.7 3.0L 0.0 0.0Z" fill="blue" stroke="none"/></marker><marker id="arrow-head-end-2_None_24_60-blue-outline" markerWidth="13.0" markerHeight="12.0" markerUnits="userSpaceOnUse" orient="auto-start-reverse" refX="8.5" refY="6.0"><path d="M 11.8 7.8 L 2.8 11.8 A 2 2 0 0 1 0.0 10.0 L 0.0 2.0 A 2 2 0 0 1 2.8 0.2 L 11.8 4.2 A 2 2 0 0 1 11.8 7.8 Z" fill="white" stroke="none"/></marker></defs><g id="grid-axes"><g id="grid" stroke="#ccc" stroke-width="1"><line id="line-0" x1="14.8" y1="155.0" x2="14.8" y2="5.0"/><line id="line-1" x1="27.8" y1="155.0" x2="27.8" y2="5.0"/><line id="line-2" x1="40.9" y1="155.0" x2="40.9" y2="5.0"/><line id="line-3" x1="53.9" y1="155.0" x2="53.9" y2="5.0"/><line id="line-4" x1="67.0" y1="155.0" x2="67.0" y2="5.0"/><line id="line-5" x1="80.0" y1="155.0" x2="80.0" y2="5.0"/><line id="line-6" x1="93.0" y1="155.0" x2="93.0" y2="5.0"/><line id="line-7" x1="106.1" y1="155.0" x2="106.1" y2="5.0"/><line id="line-8" x1="119.1" y1="155.0" x2="119.1" y2="5.0"/><line id="line-9" x1="132.2" y1="155.0" x2="132.2" y2="5.0"/><line id="line-10" x1="145.2" y1="155.0" x2="145.2" y2="5.0"/><line id="line-11" x1="5.0" y1="145.2" x2="155.0" y2="145.2"/><line id="line-12" x1="5.0" y1="132.2" x2="155.0" y2="132.2"/><line id="line-13" x1="5.0" y1="119.1" x2="155.0" y2="119.1"/><line id="line-14" x1="5.0" y1="106.1" x2="155.0" y2="106.1"/><line id="line-15" x1="5.0" y1="93.0" x2="155.0" y2="93.0"/><line id="line-16" x1="5.0" y1="80.0" x2="155.0" y2="80.0"/><line id="line-17" x1="5.0" y1="67.0" x2="155.0" y2="67.0"/><line id="line-18" x1="5.0" y1="53.9" x2="155.0" y2="53.9"/><line id="line-19" x1="5.0" y1="40.9" x2="155.0" y2="40.9"/><line id="line-20" x1="5.0" y1="27.8" x2="155.0" y2="27.8"/><line id="line-21" x1="5.0" y1="14.8" x2="155.0" y2="14.8"/></g><g id="axes" stroke="black" stroke-width="2"><line id="line-22" x1="5.0" y1="80.0" x2="155.0" y2="80.0" stroke="black" stroke-width="2" marker-end="url(#arrow-head-end-2_None_24_60-black)" marker-start="url(#arrow-head-end-2_None_24_60-black)"/><line id="line-23" x1="80.0" y1="155.0" x2="80.0" y2="5.0" stroke="black" stroke-width="2" marker-end="url(#arrow-head-end-2_None_24_60-black)" marker-start="url(#arrow-head-end-2_None_24_60-black)"/></g></g><path id="graph-0" stroke="blue" stroke-width="2" fill="none" d="M 49.4 8.2 L 50.0 11.0 L 50.6 13.8 L 51.2 16.5 L 51.8 19.2 L 52.5 21.8 L 53.1 24.4 L 53.7 26.9 L 54.3 29.3 L 54.9 31.7 L 55.5 34.0 L 56.1 36.3 L 56.7 38.5 L 57.3 40.7 L 58.0 42.8 L 58.6 44.8 L 59.2 46.8 L 59.8 48.7 L 60.4 50.6 L 61.0 52.4 L 61.6 54.1 L 62.2 55.8 L 62.9 57.5 L 63.5 59.1 L 64.1 60.6 L 64.7 62.0 L 65.3 63.5 L 65.9 64.8 L 66.5 66.1 L 67.1 67.3 L 67.8 68.5 L 68.4 69.6 L 69.0 70.7 L 69.6 71.7 L 70.2 72.6 L 70.8 73.5 L 71.4 74.4 L 72.0 75.1 L 72.7 75.9 L 73.3 76.5 L 73.9 77.1 L 74.5 77.7 L 75.1 78.2 L 75.7 78.6 L 76.3 79.0 L 76.9 79.3 L 77.6 79.5 L 78.2 79.7 L 78.8 79.9 L 79.4 80.0 L 80.0 80.0 L 80.6 80.0 L 81.2 79.9 L 81.8 79.7 L 82.4 79.5 L 83.1 79.3 L 83.7 79.0 L 84.3 78.6 L 84.9 78.2 L 85.5 77.7 L 86.1 77.1 L 86.7 76.5 L 87.3 75.9 L 88.0 75.1 L 88.6 74.4 L 89.2 73.5 L 89.8 72.6 L 90.4 71.7 L 91.0 70.7 L 91.6 69.6 L 92.2 68.5 L 92.9 67.3 L 93.5 66.1 L 94.1 64.8 L 94.7 63.5 L 95.3 62.0 L 95.9 60.6 L 96.5 59.1 L 97.1 57.5 L 97.8 55.8 L 98.4 54.1 L 99.0 52.4 L 99.6 50.6 L 100.2 48.7 L 100.8 46.8 L 101.4 44.8 L 102.0 42.8 L 102.7 40.7 L 103.3 38.5 L 103.9 36.3 L 104.5 34.0 L 105.1 31.7 L 105.7 29.3 L 106.3 26.9 L 106.9 24.4 L 107.5 21.8 L 108.2 19.2 L 108.8 16.5 L 109.4 13.8 L 110.0 11.0 L 110.6 8.2" marker-end="url(#arrow-head-end-2_None_24_60-blue)" marker-start="url(#arrow-head-end-2_None_24_60-blue)" clip-path="url(#clipPath-1)"/></svg>