<svg xmlns="http://www.w3.org/2000/svg" id="diagram" width="160" height="160"><defs><clipPath id="clipPath-0"><rect x="5.0" y="5.0" width="150.0" height="150.0"/></clipPath><clipPath id="clipPath-1"><rect x="5.0" y="5.0" width="150.0" height="150.0"/></clipPath><marker id="arrow-head-end-2_None_24_60-black" markerWidth="9.0" markerHeight="8.0" markerUnits="userSpaceOnUse" orient="auto-start-reverse" refX="6.5" refY="4.0"><path d="M 9.0 4.0L 0.0 8.0L 1.7 5.0L 1.7 3.0L 0.0 0.0Z" fill="black" stroke="none"/></marker><marker id="arrow-head-end-2_None_24_60-black-outline" markerWidth="13.0" markerHeight="12.0" markerUnits="userSpaceOnUse" orient="auto-start-reverse" refX="8.5" refY="6.0"><path d="M 11.8 7.8 L 2.8 11.8 A 2 2 0 0 1 0.0 10.0 L 0.0 2.0 A 2 2 0 0 1 2.8 0.2 L 11.8 4.2 A 2 2 0 0 1 11.8 7.8 Z" fill="white" stroke="none"/></marker><marker id="arrow-head-end-2_None_24_60-blue" markerWidth="9.0" markerHeight="8.0" markerUnits="userSpaceOnUse" orient="auto-start-reverse" refX="6.5" refY="4.0"><path d="M 9.0 4.0L 0.0 8.0L 1.7 5.0L 1.7 3.0L 0.0 0.0Z" fill="blue" stroke="none"/></marker><marker id="arrow-head-end-2_None_24_60-blue-outline" markerWidth="13.0" markerHeight="12.0" markerUnits="userSpaceOnUse" orient="auto-start-reverse" refX="8.5" refY="6.0"><path d="M 11.8 7.8 L 2.8 11.8 A 2 2 0 0 1 0.0 10.0 L 0.0 2.0 A 2 2 0 0 1 2.8 0.2 L 11.8 4.2 A 2 2 0 0 1 11.8 7.8 Z" fill="white" stroke="none"/></marker></defs><g id="grid-axes"><g id="grid" stroke="#ccc" stroke-width="1"><line id="line-0" x1="14.8" y1="155.0" x2="14.8" y2="5.0"/><line id="line-1" x1="27.8" y1="155.0" x2="27.8" y2="5.0"/><line id="line-2" x1="40.9" y1="155.0" x2="40.9" y2="5.0"/><line id="line-3" x1="53.9" y1="155.0" x2="53.9" y2="5.0"/><line id="line-4" x1="67.0" y1="155.0" x2="67.0" y2="5.0"/><line id="line-5" x1="80.0" y1="155.0" x2="80.0" y2="5.0"/><line id="line-6" x1="93.0" y1="155.0" x2="93.0" y2="5.0"/><line id="line-7" x1="106.1" y1="155.0" x2="106.1" y2="5.0"/><line id="line-8" x1="119.1" y1="155.0" x2="119.1" y2="5.0"/><line id="line-9" x1="132.2" y1="155.0" x2="132.2" y2="5.0"/><line id="line-10" x1="145.2" y1="155.0" x2="145.2" y2="5.0"/><line id="line-11" x1="5.0" y1="145.2" x2="155.0" y2="145.2"/><line id="line-12" x1="5.0" y1="132.2" x2="155.0" y2="132.2"/><line id="line-13" x1="5.0" y1="119.1" x2="155.0" y2="119.1"/><line id="line-14" x1="5.0" y1="106.1" x2="155.0" y2="106.1"/><line id="line-15" x1="5.0" y1="93.0" x2="155.0" y2="93.0"/><line id="line-16" x1="5.0" y1="80.0" x2="155.0" y2="80.0"/><line id="line-17" x1="5.0" y1="67.0" x2="155.0" y2="67.0"/><line id="line-18" x1="5.0" y1="53.9" x2="155.0" y2="53.9"/><line id="line-19" x1="5.0" y1="40.9" x2="155.0" y2="40.9"/><line id="line-20" x1="5.0" y1="27.8" x2="155.0" y2="27.8"/><line id="line-21" x1="5.0" y1="14.8" x2="155.0" y2="14.8"/></g><g id="axes" stroke="black" stroke-width="2"><line id="line-22" x1="5.0" y1="80.0" x2="155.0" y2="80.0" stroke="black" stroke-width="2" marker-end="url(#arrow-head-end-2_None_24_60-black)" marker-start="url(#arrow-head-end-2_None_24_60-black)"/><line id="line-23" x1="80.0" y1="155.0" x2="80.0" y2="5.0" stroke="black" stroke-width="2" marker-end="url(#arrow-head-end-2_None_24_60-black)" marker-start="url(#arrow-head-end-2_None_24_60-black)"/></g></g><path id="graph-0" stroke="blue" stroke-width="2" fill="none" d="M 75.5 8.2 L 76.1 11.0 L 76.7 13.8 L 77.3 16.5 L 77.9 19.2 L 78.5 21.8 L 79.2 24.4 L 79.8 26.9 L 80.4 29.3 L 81.0 31.7 L 81.6 34.0 L 82.2 36.3 L 82.8 38.5 L 83.4 40.7 L 84.0 42.8 L 84.7 44.8 L 85.3 46.8 L 85.9 48.7 L 86.5 50.6 L 87.1 52.4 L 87.7 54.1 L 88.3 55.8 L 88.9 57.5 L 89.6 59.1 L 90.2 60.6 L 90.8 62.0 L 91.4 63.5 L 92.0 64.8 L 92.6 66.1 L 93.2 67.3 L 93.8 68.5 L 94.5 69.6 L 95.1 70.7 L 95.7 71.7 L 96.3 72.6 L 96.9 73.5 L 97.5 74.4 L 98.1 75.1 L 98.7 75.9 L 99.4 76.5 L 100.0 77.1 L 100.6 77.7 L 101.2 78.2 L 101.8 78.6 L 102.4 79.0 L 103.0 79.3 L 103.6 79.5 L 104.3 79.7 L 104.9 79.9 L 105.5 80.0 L 106.1 80.0 L 106.7 80.0 L 107.3 79.9 L 107.9 79.7 L 108.5 79.5 L 109.1 79.3 L 109.8 79.0 L 110.4 78.6 L 111.0 78.2 L 111.6 77.7 L 112.2 77.1 L 112.8 76.5 L 113.4 75.9 L 114.0 75.1 L 114.7 74.4 L 115.3 73.5 L 115.9 72.6 L 116.5 71.7 L 117.1 70.7 L 117.7 69.6 L 118.3 68.5 L 118.9 67.3 L 119.6 66.1 L 120.2 64.8 L 120.8 63.5 L 121.4 62.0 L 122.0 60.6 L 122.6 59.1 L 123.2 57.5 L 123.8 55.8 L 124.5 54.1 L 125.1 52.4 L 125.7 50.6 L 126.3 48.7 L 126.9 46.8 L 127.5 44.8 L 128.1 42.8 L 128.7 40.7 L 129.3 38.5 L 130.0 36.3 L 130.6 34.0 L 131.2 31.7 L 131.8 29.3 L 132.4 26.9 L 133.0 24.4 L 133.6 21.8 L 134.2 19.2 L 134.9 16.5 L 135.5 13.8 L 136.1 11.0 L 136.7 8.2" marker-end="url(#arrow-head-end-2_None_24_60-blue)" marker-start="url(#arrow-head-end-2_None_24_60-blue)" clip-path="url(#clipPath-1)"/></svg>