<svg xmlns="http://www.w3.org/2000/svg" id="diagram" width="160" height="160"><defs><clipPath id="clipPath-0"><rect x="5.0" y="5.0" width="150.0" height="150.0"/></clipPath><clipPath id="clipPath-1"><rect x="5.0" y="5.0" width="150.0" height="150.0"/></clipPath><marker id="arrow-head-end-2_None_24_60-black" markerWidth="9.0" markerHeight="8.0" markerUnits="userSpaceOnUse" orient="auto-start-reverse" refX="6.5" refY="4.0"><path d="M 9.0 4.0L 0.0 8.0L 1.7 5.0L 1.7 3.0L 0.0 0.0Z" fill="black" stroke="none"/></marker><marker id="arrow-head-end-2_None_24_60-black-outline" markerWidth="13.0" markerHeight="12.0" markerUnits="userSpaceOnUse" orient="auto-start-reverse" refX="8.5" refY="6.0"><path d="M 11.8 7.8 L 2.8 11.8 A 2 2 0 0 1 0.0 10.0 L 0.0 2.0 A 2 2 0 0 1 2.8 0.2 L 11.8 4.2 A 2 2 0 0 1 11.8 7.8 Z" fill="white" stroke="none"/></marker></defs><g id="grid-axes"><g id="grid" stroke="#ccc" stroke-width="1"><line id="line-0" x1="18.5" y1="155.0" x2="18.5" y2="5.0"/><line id="line-1" x1="39.0" y1="155.0" x2="39.0" y2="5.0"/><line id="line-2" x1="59.5" y1="155.0" x2="59.5" y2="5.0"/><line id="line-3" x1="80.0" y1="155.0" x2="80.0" y2="5.0"/><line id="line-4" x1="100.5" y1="155.0" x2="100.5" y2="5.0"/><line id="line-5" x1="121.0" y1="155.0" x2="121.0" y2="5.0"/><line id="line-6" x1="141.5" y1="155.0" x2="141.5" y2="5.0"/><line id="line-7" x1="5.0" y1="145.2" x2="155.0" y2="145.2"/><line id="line-8" x1="5.0" y1="132.2" x2="155.0" y2="132.2"/><line id="line-9" x1="5.0" y1="119.1" x2="155.0" y2="119.1"/><line id="line-10" x1="5.0" y1="106.1" x2="155.0" y2="106.1"/><line id="line-11" x1="5.0" y1="93.0" x2="155.0" y2="93.0"/><line id="line-12" x1="5.0" y1="80.0" x2="155.0" y2="80.0"/><line id="line-13" x1="5.0" y1="67.0" x2="155.0" y2="67.0"/><line id="line-14" x1="5.0" y1="53.9" x2="155.0" y2="53.9"/><line id="line-15" x1="5.0" y1="40.9" x2="155.0" y2="40.9"/><line id="line-16" x1="5.0" y1="27.8" x2="155.0" y2="27.8"/><line id="line-17" x1="5.0" y1="14.8" x2="155.0" y2="14.8"/></g><g id="axes" stroke="black" stroke-width="2"><line id="line-18" x1="5.0" y1="80.0" x2="155.0" y2="80.0" stroke="black" stroke-width="2" marker-end="url(#arrow-head-end-2_None_24_60-black)" marker-start="url(#arrow-head-end-2_None_24_60-black)"/><line id="line-19" x1="80.0" y1="155.0" x2="80.0" y2="5.0" stroke="black" stroke-width="2" marker-end="url(#arrow-head-end-2_None_24_60-black)" marker-start="url(#arrow-head-end-2_None_24_60-black)"/></g></g><path id="graph-0" stroke="blue" stroke-width="2" stroke-linecap="round" fill="none" d="M 39.0 119.1 L 39.8 119.1 L 40.7 118.8 L 41.5 118.4 L 42.3 117.9 L 43.1 117.2 L 43.9 116.4 L 44.8 115.4 L 45.6 114.3 L 46.4 113.0 L 47.2 111.7 L 48.0 110.2 L 48.9 108.5 L 49.7 106.8 L 50.5 104.9 L 51.3 103.0 L 52.1 101.0 L 53.0 98.9 L 53.8 96.7 L 54.6 94.4 L 55.4 92.1 L 56.2 89.7 L 57.1 87.3 L 57.9 84.9 L 58.7 82.5 L 59.5 80.0 L 60.3 77.5 L 61.2 75.1 L 62.0 72.7 L 62.8 70.3 L 63.6 67.9 L 64.4 65.6 L 65.2 63.3 L 66.1 61.1 L 66.9 59.0 L 67.7 57.0 L 68.5 55.1 L 69.3 53.2 L 70.2 51.5 L 71.0 49.8 L 71.8 48.3 L 72.6 47.0 L 73.4 45.7 L 74.3 44.6 L 75.1 43.6 L 75.9 42.8 L 76.7 42.1 L 77.5 41.6 L 78.4 41.2 L 79.2 40.9 L 80.0 40.9 L 80.8 40.9 L 81.6 41.2 L 82.5 41.6 L 83.3 42.1 L 84.1 42.8 L 84.9 43.6 L 85.7 44.6 L 86.6 45.7 L 87.4 47.0 L 88.2 48.3 L 89.0 49.8 L 89.8 51.5 L 90.7 53.2 L 91.5 55.1 L 92.3 57.0 L 93.1 59.0 L 93.9 61.1 L 94.8 63.3 L 95.6 65.6 L 96.4 67.9 L 97.2 70.3 L 98.0 72.7 L 98.8 75.1 L 99.7 77.5 L 100.5 80.0 L 101.3 82.5 L 102.1 84.9 L 102.9 87.3 L 103.8 89.7 L 104.6 92.1 L 105.4 94.4 L 106.2 96.7 L 107.0 98.9 L 107.9 101.0 L 108.7 103.0 L 109.5 104.9 L 110.3 106.8 L 111.1 108.5 L 112.0 110.2 L 112.8 111.7 L 113.6 113.0 L 114.4 114.3 L 115.2 115.4 L 116.1 116.4 L 116.9 117.2 L 117.7 117.9 L 118.5 118.4 L 119.3 118.8 L 120.2 119.1 L 121.0 119.1" clip-path="url(#clipPath-1)"/></svg>